<svg width="795" height="304" viewBox="0 0 795 304" fill="none" xmlns="http://www.w3.org/2000/svg">
<g clip-path="url(#clip0)">
<path d="M132.096 23.7919H120.376C119.971 23.7919 119.643 24.1207 119.643 24.5239C119.643 24.927 119.971 25.2559 120.376 25.2559H132.096C132.5 25.2559 132.828 24.927 132.828 24.5239C132.828 24.1207 132.5 23.7919 132.096 23.7919Z" fill="black"/>
<path d="M126.236 157.748C128.663 157.748 130.631 155.781 130.631 153.356C130.631 150.93 128.663 148.964 126.236 148.964C123.808 148.964 121.841 150.93 121.841 153.356C121.841 155.781 123.808 157.748 126.236 157.748Z" fill="black"/>
<path d="M177.262 101.361C176.704 100.804 176.086 100.352 175.443 99.956L177.262 98.1385C181.113 94.2898 181.113 88.0306 177.262 84.1819C175.312 82.2338 172.745 81.2802 170.186 81.3043V36.2359V21.5959C170.186 15.1366 164.928 9.88388 158.466 9.88388H94.0055C87.5432 9.88388 82.2855 15.1366 82.2855 21.5959V36.2359V79.5797C80.1607 79.077 78.1423 79.1924 76.5514 80.0129C74.6329 80.9965 73.4684 82.8923 73.3525 85.2113C73.2867 86.5037 73.2366 88.0506 73.1794 89.792C72.8675 99.3251 72.3439 115.28 68.0576 124.531C61.6539 138.356 62.6096 153.931 70.6256 167.581C67.0075 171.796 64.644 173.466 64.1648 173.783C62.8171 174.675 62.448 176.494 63.3421 177.841C63.9058 178.69 64.8372 179.15 65.7871 179.15C66.3437 179.15 66.9059 178.993 67.4038 178.661C68.5912 177.875 71.8574 175.425 76.5014 169.68C77.2954 168.696 77.3698 167.318 76.6874 166.257C68.7472 153.899 67.5411 139.588 73.3754 126.99C78.1624 116.662 78.7089 99.9628 79.0365 89.9836C79.0923 88.2822 79.1409 86.7668 79.2039 85.5029C79.2139 85.3256 79.2411 85.2313 79.2354 85.217C79.544 85.0488 80.7322 85.0642 82.2855 85.7515V141.644V156.284C82.2855 162.743 87.5432 167.996 94.0055 167.996H149.807C149.162 168.744 148.527 169.472 147.863 170.252C138.441 181.321 127.759 193.882 109.239 190.716C108.51 190.602 107.76 190.751 107.14 191.157C101.063 195.146 97.8025 198.674 97.4477 201.642C97.2574 203.246 98.3963 204.753 100.003 204.945C100.124 204.959 100.246 204.965 100.365 204.965C101.823 204.965 103.073 203.915 103.25 202.431C103.256 202.411 103.86 200.484 109.43 196.673C130.529 199.663 143.1 184.886 152.327 174.046C154.198 171.85 155.974 169.778 157.675 167.996H158.466C164.928 167.996 170.186 162.743 170.186 156.284V155.3C171.557 154.828 172.852 154.082 173.945 152.99L177.262 149.676C181.113 145.827 181.113 139.568 177.262 135.719C176.704 135.162 176.086 134.71 175.443 134.314L177.262 132.497C181.113 128.648 181.113 122.389 177.262 118.54C176.704 117.983 176.086 117.531 175.443 117.135L177.262 115.318C181.113 111.469 181.113 105.21 177.262 101.361ZM173.118 145.535L170.186 148.466L169.802 148.85C168.297 150.357 165.9 150.376 164.326 148.984C164.263 148.929 164.182 148.909 164.122 148.85C162.967 147.695 162.678 146.007 163.228 144.572C163.423 144.063 163.713 143.583 164.122 143.174L164.326 142.971L167.439 139.86C167.782 139.515 168.187 139.279 168.605 139.087C169.109 138.854 169.64 138.718 170.186 138.705C170.217 138.705 170.247 138.687 170.279 138.687C171.307 138.687 172.336 139.076 173.118 139.86C174.684 141.424 174.684 143.971 173.118 145.535ZM173.118 88.3223C174.684 89.8863 174.684 92.434 173.118 93.9981L170.186 96.929L169.802 97.3121C168.297 98.8192 165.9 98.8387 164.326 97.4471C164.263 97.3917 164.182 97.372 164.122 97.3121C162.557 95.7481 162.557 93.2003 164.122 91.6363L164.326 91.4333L167.439 88.3223C168.197 87.5629 169.189 87.1912 170.186 87.168C170.217 87.1672 170.247 87.1499 170.279 87.1499C171.307 87.1499 172.336 87.5388 173.118 88.3223ZM169.802 131.67C168.297 133.177 165.9 133.197 164.326 131.805C164.263 131.75 164.182 131.73 164.122 131.67C162.557 130.106 162.557 127.559 164.122 125.995L164.326 125.792L167.439 122.681C168.197 121.921 169.189 121.549 170.186 121.526C170.217 121.525 170.247 121.508 170.279 121.508C171.307 121.508 172.336 121.897 173.118 122.681C174.684 124.245 174.684 126.792 173.118 128.356L170.186 131.287L169.802 131.67ZM169.802 114.491C168.297 115.998 165.9 116.018 164.326 114.626C164.263 114.571 164.182 114.551 164.122 114.491C162.557 112.927 162.557 110.379 164.122 108.815L164.326 108.612L167.439 105.501C168.197 104.742 169.189 104.37 170.186 104.347C170.217 104.346 170.247 104.329 170.279 104.329C171.307 104.329 172.336 104.718 173.118 105.501C174.684 107.065 174.684 109.613 173.118 111.177L170.186 114.108L169.802 114.491ZM163.295 84.1819L159.979 87.4959C156.128 91.3446 156.128 97.6038 159.979 101.453C160.537 102.01 161.154 102.462 161.798 102.857L159.979 104.675C156.128 108.524 156.128 114.783 159.979 118.632C160.537 119.189 161.154 119.641 161.798 120.036L159.979 121.854C156.128 125.703 156.128 131.962 159.979 135.811C160.537 136.368 161.154 136.82 161.798 137.216L160.297 138.716H88.1455V39.1639H164.326V83.3414C163.975 83.6082 163.616 83.8618 163.295 84.1819ZM88.1455 21.5959C88.1455 18.3676 90.7737 15.7399 94.0055 15.7399H158.466C161.697 15.7399 164.326 18.3676 164.326 21.5959V33.3079H88.1455V21.5959ZM164.326 156.284C164.326 159.512 161.697 162.14 158.466 162.14H156.427H94.0055C90.7737 162.14 88.1455 159.512 88.1455 156.284V144.572H157.229C156.791 147.555 157.686 150.698 159.979 152.99C161.226 154.236 162.736 155.035 164.326 155.473V156.284V156.284Z" fill="black"/>
<path d="M97.54 108.49V108.754L97.7682 108.887L126.048 125.384L126.28 125.519L126.512 125.384L154.792 108.887L155.02 108.754V108.49V75.4957V75.2315L154.792 75.0984L126.512 58.6027L126.28 58.4675L126.048 58.6027L97.7682 75.0997L97.54 75.2328V75.497V108.49Z" stroke="#373737" stroke-width="0.92"/>
<path fill-rule="evenodd" clip-rule="evenodd" d="M100.908 79.4783C100.613 79.6982 100.295 79.8838 99.9589 80.0319V103.954C101.928 104.822 103.107 106.886 102.867 109.043L123.371 121.004C123.666 120.785 123.984 120.599 124.32 120.451V96.5289C122.351 95.6606 121.171 93.5968 121.412 91.4394L100.908 79.4778L100.908 79.4783ZM151.652 79.3454L131.125 91.4398C131.366 93.5971 130.186 95.6608 128.217 96.5292L128.24 120.318C128.576 120.466 128.894 120.652 129.189 120.872L149.694 108.911C149.454 106.753 150.633 104.69 152.602 103.821V79.8994C152.267 79.7513 151.948 79.5657 151.653 79.3459L151.652 79.3454ZM123.361 62.9733L102.857 74.9345C102.898 75.3024 102.898 75.6737 102.857 76.0415L123.362 88.0026C125.091 86.7136 127.449 86.7136 129.178 88.0026L149.684 76.0414C149.643 75.6735 149.643 75.3024 149.684 74.9345L129.18 62.9734C127.451 64.2624 125.092 64.2624 123.363 62.9734L123.361 62.9733ZM98 108.49L126.28 124.987L154.56 108.49V75.4957L126.28 59L98 75.497V108.49Z" fill="#373737"/>
<path d="M91.0336 263L93.594 255.791H103.885L106.446 263H109.677L100.331 237.545H97.1487L87.8021 263H91.0336ZM94.5635 253.057L98.6402 241.572H98.839L102.916 253.057H94.5635ZM116.177 237.545H113.244V263H116.177V237.545ZM121.55 263H124.483V243.909H121.55V263ZM123.041 240.727C124.185 240.727 125.129 239.832 125.129 238.739C125.129 237.645 124.185 236.75 123.041 236.75C121.898 236.75 120.953 237.645 120.953 238.739C120.953 239.832 121.898 240.727 123.041 240.727ZM137.611 263.398C141.837 263.398 144.621 260.812 145.118 257.432H142.185C141.638 259.52 139.898 260.763 137.611 260.763C134.131 260.763 131.894 257.879 131.894 253.455C131.894 249.129 134.181 246.295 137.611 246.295C140.196 246.295 141.738 247.886 142.185 249.626H145.118C144.621 246.047 141.589 243.661 137.562 243.661C132.391 243.661 128.961 247.737 128.961 253.554C128.961 259.271 132.242 263.398 137.611 263.398ZM157.411 263.398C161.288 263.398 164.122 261.459 165.017 258.575L162.183 257.78C161.438 259.768 159.71 260.763 157.411 260.763C153.968 260.763 151.594 258.538 151.457 254.449H165.315V253.206C165.315 246.097 161.09 243.661 157.112 243.661C151.942 243.661 148.511 247.737 148.511 253.604C148.511 259.47 151.892 263.398 157.411 263.398ZM151.457 251.913C151.656 248.943 153.756 246.295 157.112 246.295C160.294 246.295 162.332 248.682 162.332 251.913H151.457ZM77.5859 289.129C76.8411 289.021 76.193 288.785 75.6416 288.42C75.0902 288.055 74.6318 287.575 74.2666 286.98C73.9014 286.379 73.6292 285.674 73.4502 284.864C73.2712 284.048 73.1816 283.146 73.1816 282.157C73.1816 280.882 73.3285 279.78 73.6221 278.849C73.9157 277.918 74.3132 277.151 74.8145 276.55C75.3229 275.941 75.9137 275.493 76.5869 275.207C77.2601 274.913 77.9727 274.767 78.7246 274.767C79.627 274.767 80.4111 274.931 81.0771 275.261C81.7503 275.583 82.3089 276.052 82.7529 276.668C83.1969 277.277 83.5264 278.018 83.7412 278.892C83.9632 279.758 84.0742 280.736 84.0742 281.824C84.0742 282.97 83.9525 283.976 83.709 284.843C83.4655 285.702 83.1325 286.433 82.71 287.034C82.2874 287.636 81.7897 288.108 81.2168 288.452C80.6439 288.796 80.028 289.021 79.3691 289.129C79.4766 289.759 79.7272 290.264 80.1211 290.644C80.515 291.03 81.07 291.224 81.7861 291.224C82.1299 291.224 82.4665 291.166 82.7959 291.052C83.1325 290.937 83.4727 290.744 83.8164 290.472L84.665 291.793C84.1924 292.18 83.7054 292.455 83.2041 292.62C82.7028 292.785 82.1872 292.867 81.6572 292.867C81.0843 292.867 80.5579 292.788 80.0781 292.631C79.5983 292.473 79.1794 292.237 78.8213 291.922C78.4704 291.614 78.1875 291.224 77.9727 290.751C77.7578 290.285 77.6289 289.745 77.5859 289.129ZM82.0869 282.05C82.0869 281.219 82.0225 280.464 81.8936 279.783C81.7718 279.096 81.5713 278.508 81.292 278.021C81.0127 277.527 80.651 277.144 80.207 276.872C79.7702 276.6 79.2402 276.464 78.6172 276.464C78.0156 276.464 77.4964 276.607 77.0596 276.894C76.6299 277.18 76.2754 277.57 75.9961 278.064C75.7168 278.551 75.5091 279.124 75.373 279.783C75.237 280.435 75.1689 281.13 75.1689 281.867C75.1689 282.719 75.2334 283.493 75.3623 284.188C75.4912 284.875 75.6917 285.466 75.9639 285.96C76.2432 286.454 76.6012 286.837 77.0381 287.109C77.4749 287.374 78.0013 287.507 78.6172 287.507C79.2188 287.507 79.738 287.364 80.1748 287.077C80.6117 286.791 80.9697 286.4 81.249 285.906C81.5355 285.412 81.7467 284.836 81.8828 284.177C82.0189 283.511 82.0869 282.802 82.0869 282.05ZM94.0752 289V281.255C94.0752 280.918 94.0609 280.643 94.0322 280.428C94.0107 280.213 93.9714 280.045 93.9141 279.923C93.8639 279.794 93.7959 279.704 93.71 279.654C93.6312 279.604 93.5309 279.579 93.4092 279.579C93.266 279.579 93.1335 279.622 93.0117 279.708C92.89 279.794 92.7575 279.934 92.6143 280.127C92.4782 280.32 92.3242 280.578 92.1523 280.9C91.9876 281.215 91.7907 281.606 91.5615 282.071V289H89.8535V281.459C89.8535 281.065 89.8392 280.746 89.8105 280.503C89.7891 280.259 89.7497 280.07 89.6924 279.934C89.6423 279.798 89.5742 279.704 89.4883 279.654C89.4023 279.604 89.2985 279.579 89.1768 279.579C89.0479 279.579 88.9261 279.615 88.8115 279.687C88.6969 279.758 88.568 279.887 88.4248 280.073C88.2887 280.259 88.1348 280.514 87.9629 280.836C87.791 281.158 87.5869 281.57 87.3506 282.071V289H85.6318V278.215H87.0605L87.1465 280.267C87.3327 279.858 87.5117 279.511 87.6836 279.225C87.8626 278.938 88.0452 278.709 88.2314 278.537C88.4176 278.358 88.6146 278.229 88.8223 278.15C89.0371 278.064 89.2734 278.021 89.5312 278.021C90.1113 278.021 90.5518 278.211 90.8525 278.591C91.1533 278.97 91.3037 279.558 91.3037 280.353C91.4756 279.98 91.6439 279.651 91.8086 279.364C91.9733 279.071 92.1488 278.827 92.335 278.634C92.5283 278.433 92.7396 278.283 92.9688 278.183C93.1979 278.075 93.4629 278.021 93.7637 278.021C95.1172 278.021 95.7939 279.063 95.7939 281.147V289H94.0752ZM97.9316 283.833C97.9316 282.916 98.057 282.104 98.3076 281.395C98.5583 280.678 98.9128 280.077 99.3711 279.59C99.8366 279.096 100.392 278.723 101.036 278.473C101.688 278.215 102.411 278.086 103.206 278.086C103.55 278.086 103.886 278.107 104.216 278.15C104.552 278.193 104.882 278.261 105.204 278.354V273.821H107.084V289H105.408L105.344 286.959C104.821 287.718 104.255 288.28 103.646 288.646C103.038 289.011 102.379 289.193 101.67 289.193C101.054 289.193 100.51 289.064 100.037 288.807C99.5716 288.549 99.1813 288.187 98.8662 287.722C98.5583 287.249 98.3255 286.683 98.168 286.024C98.0104 285.366 97.9316 284.635 97.9316 283.833ZM99.8438 283.715C99.8438 285.018 100.034 285.992 100.413 286.637C100.8 287.274 101.344 287.593 102.046 287.593C102.519 287.593 103.016 287.382 103.539 286.959C104.069 286.536 104.624 285.91 105.204 285.079V280.073C104.896 279.93 104.556 279.823 104.184 279.751C103.811 279.672 103.442 279.633 103.077 279.633C102.06 279.633 101.265 279.962 100.692 280.621C100.127 281.28 99.8438 282.311 99.8438 283.715ZM119.685 283.038C119.685 283.303 119.681 283.525 119.674 283.704C119.667 283.883 119.656 284.051 119.642 284.209H112.068C112.068 285.312 112.376 286.16 112.992 286.755C113.608 287.342 114.496 287.636 115.656 287.636C115.971 287.636 116.286 287.625 116.602 287.604C116.917 287.575 117.221 287.539 117.515 287.496C117.808 287.453 118.088 287.407 118.353 287.356C118.625 287.299 118.875 287.238 119.104 287.174V288.71C118.596 288.853 118.02 288.968 117.375 289.054C116.738 289.147 116.075 289.193 115.388 289.193C114.464 289.193 113.669 289.068 113.003 288.817C112.337 288.567 111.789 288.205 111.359 287.732C110.937 287.253 110.622 286.669 110.414 285.981C110.214 285.287 110.113 284.503 110.113 283.629C110.113 282.87 110.221 282.154 110.436 281.48C110.658 280.8 110.976 280.206 111.392 279.697C111.814 279.182 112.33 278.773 112.938 278.473C113.547 278.172 114.238 278.021 115.012 278.021C115.764 278.021 116.43 278.14 117.01 278.376C117.59 278.612 118.077 278.949 118.471 279.386C118.872 279.815 119.173 280.342 119.373 280.965C119.581 281.581 119.685 282.272 119.685 283.038ZM117.74 282.77C117.762 282.29 117.715 281.853 117.601 281.459C117.486 281.058 117.307 280.714 117.063 280.428C116.827 280.141 116.53 279.919 116.172 279.762C115.814 279.597 115.398 279.515 114.926 279.515C114.518 279.515 114.145 279.593 113.809 279.751C113.472 279.909 113.182 280.131 112.938 280.417C112.695 280.703 112.498 281.047 112.348 281.448C112.197 281.849 112.104 282.29 112.068 282.77H117.74ZM124.143 287.904C124.143 288.076 124.11 288.241 124.046 288.398C123.981 288.556 123.892 288.696 123.777 288.817C123.67 288.932 123.537 289.021 123.38 289.086C123.222 289.158 123.05 289.193 122.864 289.193C122.678 289.193 122.506 289.158 122.349 289.086C122.191 289.021 122.055 288.932 121.94 288.817C121.833 288.703 121.747 288.567 121.683 288.409C121.618 288.252 121.586 288.083 121.586 287.904C121.586 287.725 121.618 287.557 121.683 287.399C121.747 287.242 121.833 287.106 121.94 286.991C122.055 286.869 122.191 286.776 122.349 286.712C122.506 286.64 122.678 286.604 122.864 286.604C123.05 286.604 123.222 286.64 123.38 286.712C123.537 286.776 123.67 286.866 123.777 286.98C123.892 287.095 123.981 287.235 124.046 287.399C124.11 287.557 124.143 287.725 124.143 287.904ZM128.278 287.904C128.278 288.076 128.246 288.241 128.182 288.398C128.117 288.556 128.028 288.696 127.913 288.817C127.806 288.932 127.673 289.021 127.516 289.086C127.358 289.158 127.186 289.193 127 289.193C126.814 289.193 126.642 289.158 126.484 289.086C126.327 289.021 126.191 288.932 126.076 288.817C125.969 288.703 125.883 288.567 125.818 288.409C125.754 288.252 125.722 288.083 125.722 287.904C125.722 287.725 125.754 287.557 125.818 287.399C125.883 287.242 125.969 287.106 126.076 286.991C126.191 286.869 126.327 286.776 126.484 286.712C126.642 286.64 126.814 286.604 127 286.604C127.186 286.604 127.358 286.64 127.516 286.712C127.673 286.776 127.806 286.866 127.913 286.98C128.028 287.095 128.117 287.235 128.182 287.399C128.246 287.557 128.278 287.725 128.278 287.904ZM132.414 287.904C132.414 288.076 132.382 288.241 132.317 288.398C132.253 288.556 132.163 288.696 132.049 288.817C131.941 288.932 131.809 289.021 131.651 289.086C131.494 289.158 131.322 289.193 131.136 289.193C130.95 289.193 130.778 289.158 130.62 289.086C130.463 289.021 130.326 288.932 130.212 288.817C130.104 288.703 130.019 288.567 129.954 288.409C129.89 288.252 129.857 288.083 129.857 287.904C129.857 287.725 129.89 287.557 129.954 287.399C130.019 287.242 130.104 287.106 130.212 286.991C130.326 286.869 130.463 286.776 130.62 286.712C130.778 286.64 130.95 286.604 131.136 286.604C131.322 286.604 131.494 286.64 131.651 286.712C131.809 286.776 131.941 286.866 132.049 286.98C132.163 287.095 132.253 287.235 132.317 287.399C132.382 287.557 132.414 287.725 132.414 287.904ZM141.695 289L141.652 287.55C141.065 288.13 140.467 288.549 139.858 288.807C139.257 289.064 138.623 289.193 137.957 289.193C137.341 289.193 136.815 289.115 136.378 288.957C135.941 288.799 135.579 288.585 135.293 288.312C135.014 288.033 134.806 287.707 134.67 287.335C134.541 286.963 134.477 286.558 134.477 286.121C134.477 285.04 134.878 284.195 135.68 283.586C136.489 282.97 137.681 282.662 139.257 282.662H141.491V281.717C141.491 281.079 141.287 280.571 140.879 280.191C140.471 279.805 139.848 279.611 139.01 279.611C138.401 279.611 137.799 279.679 137.205 279.815C136.618 279.951 136.009 280.145 135.379 280.396V278.709C135.615 278.623 135.877 278.541 136.163 278.462C136.457 278.376 136.765 278.301 137.087 278.236C137.409 278.172 137.746 278.122 138.097 278.086C138.448 278.043 138.802 278.021 139.16 278.021C139.812 278.021 140.399 278.093 140.922 278.236C141.445 278.38 141.885 278.598 142.243 278.892C142.608 279.185 142.888 279.554 143.081 279.998C143.274 280.442 143.371 280.965 143.371 281.566V289H141.695ZM141.491 284.091H139.117C138.652 284.091 138.251 284.137 137.914 284.23C137.577 284.324 137.302 284.456 137.087 284.628C136.872 284.8 136.711 285.007 136.604 285.251C136.503 285.487 136.453 285.756 136.453 286.057C136.453 286.264 136.485 286.465 136.55 286.658C136.614 286.844 136.718 287.013 136.861 287.163C137.005 287.306 137.191 287.421 137.42 287.507C137.649 287.593 137.928 287.636 138.258 287.636C138.688 287.636 139.178 287.507 139.729 287.249C140.288 286.984 140.875 286.569 141.491 286.003V284.091ZM155.402 286.057C155.402 286.436 155.338 286.776 155.209 287.077C155.08 287.378 154.905 287.646 154.683 287.883C154.461 288.112 154.203 288.309 153.909 288.474C153.616 288.638 153.3 288.774 152.964 288.882C152.634 288.989 152.294 289.068 151.943 289.118C151.592 289.168 151.249 289.193 150.912 289.193C150.182 289.193 149.508 289.161 148.893 289.097C148.284 289.032 147.686 288.928 147.099 288.785V287.066C147.729 287.245 148.355 287.382 148.979 287.475C149.602 287.568 150.221 287.614 150.837 287.614C151.732 287.614 152.395 287.493 152.824 287.249C153.254 287.006 153.469 286.658 153.469 286.207C153.469 286.014 153.433 285.842 153.361 285.691C153.297 285.534 153.175 285.387 152.996 285.251C152.817 285.108 152.538 284.961 152.158 284.811C151.786 284.66 151.274 284.488 150.622 284.295C150.135 284.152 149.684 283.991 149.269 283.812C148.86 283.625 148.506 283.407 148.205 283.156C147.904 282.906 147.668 282.612 147.496 282.275C147.324 281.939 147.238 281.541 147.238 281.083C147.238 280.782 147.306 280.453 147.442 280.095C147.586 279.737 147.826 279.404 148.162 279.096C148.499 278.788 148.953 278.534 149.526 278.333C150.099 278.125 150.815 278.021 151.675 278.021C152.097 278.021 152.566 278.047 153.082 278.097C153.598 278.14 154.135 278.218 154.693 278.333V279.998C154.106 279.855 153.548 279.751 153.018 279.687C152.495 279.615 152.04 279.579 151.653 279.579C151.188 279.579 150.794 279.615 150.472 279.687C150.157 279.758 149.899 279.858 149.698 279.987C149.505 280.109 149.365 280.256 149.279 280.428C149.193 280.592 149.15 280.771 149.15 280.965C149.15 281.158 149.186 281.334 149.258 281.491C149.337 281.649 149.476 281.803 149.677 281.953C149.884 282.096 150.171 282.243 150.536 282.394C150.901 282.537 151.378 282.694 151.965 282.866C152.602 283.052 153.139 283.249 153.576 283.457C154.013 283.658 154.368 283.883 154.64 284.134C154.912 284.384 155.105 284.667 155.22 284.982C155.341 285.298 155.402 285.656 155.402 286.057ZM162.632 279.762H159.441V278.215H164.522V287.442H167.734V289H159.087V287.442H162.632V279.762ZM163.287 273.692C163.495 273.692 163.688 273.732 163.867 273.811C164.046 273.882 164.2 273.986 164.329 274.122C164.465 274.258 164.569 274.416 164.641 274.595C164.719 274.767 164.759 274.956 164.759 275.164C164.759 275.365 164.719 275.554 164.641 275.733C164.569 275.912 164.465 276.07 164.329 276.206C164.2 276.342 164.046 276.45 163.867 276.528C163.688 276.6 163.495 276.636 163.287 276.636C163.079 276.636 162.886 276.6 162.707 276.528C162.528 276.45 162.37 276.342 162.234 276.206C162.105 276.07 162.002 275.912 161.923 275.733C161.851 275.554 161.815 275.365 161.815 275.164C161.815 274.956 161.851 274.767 161.923 274.595C162.002 274.416 162.105 274.258 162.234 274.122C162.37 273.986 162.528 273.882 162.707 273.811C162.886 273.732 163.079 273.692 163.287 273.692ZM179.787 289H171.097V287.657L177.188 279.783H171.247V278.215H179.433V279.676L173.449 287.421H179.787V289Z" fill="black"/>
<path d="M408.096 23.7919H396.376C395.971 23.7919 395.643 24.1207 395.643 24.5239C395.643 24.927 395.971 25.2559 396.376 25.2559H408.096C408.5 25.2559 408.828 24.927 408.828 24.5239C408.828 24.1207 408.5 23.7919 408.096 23.7919Z" fill="black"/>
<path d="M402.236 157.748C404.663 157.748 406.631 155.781 406.631 153.356C406.631 150.93 404.663 148.964 402.236 148.964C399.808 148.964 397.841 150.93 397.841 153.356C397.841 155.781 399.808 157.748 402.236 157.748Z" fill="black"/>
<path d="M453.262 101.361C452.704 100.804 452.086 100.352 451.443 99.956L453.262 98.1385C457.113 94.2898 457.113 88.0306 453.262 84.1819C451.312 82.2338 448.745 81.2802 446.186 81.3043V36.2359V21.5959C446.186 15.1366 440.928 9.88388 434.466 9.88388H370.006C363.543 9.88388 358.286 15.1366 358.286 21.5959V36.2359V79.5797C356.161 79.077 354.142 79.1924 352.551 80.0129C350.633 80.9965 349.468 82.8923 349.352 85.2113C349.287 86.5037 349.237 88.0506 349.179 89.792C348.867 99.3251 348.344 115.28 344.058 124.531C337.654 138.356 338.61 153.931 346.626 167.581C343.007 171.796 340.644 173.466 340.165 173.783C338.817 174.675 338.448 176.494 339.342 177.841C339.906 178.69 340.837 179.15 341.787 179.15C342.344 179.15 342.906 178.993 343.404 178.661C344.591 177.875 347.857 175.425 352.501 169.68C353.295 168.696 353.37 167.318 352.687 166.257C344.747 153.899 343.541 139.588 349.375 126.99C354.162 116.662 354.709 99.9628 355.037 89.9836C355.092 88.2822 355.141 86.7668 355.204 85.5029C355.214 85.3256 355.241 85.2313 355.235 85.217C355.544 85.0488 356.732 85.0642 358.286 85.7515V141.644V156.284C358.286 162.743 363.543 167.996 370.006 167.996H425.807C425.162 168.744 424.527 169.472 423.863 170.252C414.441 181.321 403.759 193.882 385.239 190.716C384.51 190.602 383.76 190.751 383.14 191.157C377.063 195.146 373.803 198.674 373.448 201.642C373.257 203.246 374.396 204.753 376.003 204.945C376.124 204.959 376.246 204.965 376.365 204.965C377.823 204.965 379.073 203.915 379.25 202.431C379.256 202.411 379.86 200.484 385.43 196.673C406.529 199.663 419.1 184.886 428.327 174.046C430.198 171.85 431.974 169.778 433.675 167.996H434.466C440.928 167.996 446.186 162.743 446.186 156.284V155.3C447.557 154.828 448.852 154.082 449.945 152.99L453.262 149.676C457.113 145.827 457.113 139.568 453.262 135.719C452.704 135.162 452.086 134.71 451.443 134.314L453.262 132.497C457.113 128.648 457.113 122.389 453.262 118.54C452.704 117.983 452.086 117.531 451.443 117.135L453.262 115.318C457.113 111.469 457.113 105.21 453.262 101.361ZM449.118 145.535L446.186 148.466L445.802 148.85C444.297 150.357 441.9 150.376 440.326 148.984C440.263 148.929 440.182 148.909 440.122 148.85C438.967 147.695 438.678 146.007 439.228 144.572C439.423 144.063 439.713 143.583 440.122 143.174L440.326 142.971L443.439 139.86C443.782 139.515 444.187 139.279 444.605 139.087C445.109 138.854 445.64 138.718 446.186 138.705C446.217 138.705 446.247 138.687 446.279 138.687C447.307 138.687 448.336 139.076 449.118 139.86C450.684 141.424 450.684 143.971 449.118 145.535ZM449.118 88.3223C450.684 89.8863 450.684 92.434 449.118 93.9981L446.186 96.929L445.802 97.3121C444.297 98.8192 441.9 98.8387 440.326 97.4471C440.263 97.3917 440.182 97.372 440.122 97.3121C438.557 95.7481 438.557 93.2003 440.122 91.6363L440.326 91.4333L443.439 88.3223C444.197 87.5629 445.189 87.1912 446.186 87.168C446.217 87.1672 446.247 87.1499 446.279 87.1499C447.307 87.1499 448.336 87.5388 449.118 88.3223ZM445.802 131.67C444.297 133.177 441.9 133.197 440.326 131.805C440.263 131.75 440.182 131.73 440.122 131.67C438.557 130.106 438.557 127.559 440.122 125.995L440.326 125.792L443.439 122.681C444.197 121.921 445.189 121.549 446.186 121.526C446.217 121.525 446.247 121.508 446.279 121.508C447.307 121.508 448.336 121.897 449.118 122.681C450.684 124.245 450.684 126.792 449.118 128.356L446.186 131.287L445.802 131.67ZM445.802 114.491C444.297 115.998 441.9 116.018 440.326 114.626C440.263 114.571 440.182 114.551 440.122 114.491C438.557 112.927 438.557 110.379 440.122 108.815L440.326 108.612L443.439 105.501C444.197 104.742 445.189 104.37 446.186 104.347C446.217 104.346 446.247 104.329 446.279 104.329C447.307 104.329 448.336 104.718 449.118 105.501C450.684 107.065 450.684 109.613 449.118 111.177L446.186 114.108L445.802 114.491ZM439.295 84.1819L435.979 87.4959C432.128 91.3446 432.128 97.6038 435.979 101.453C436.537 102.01 437.154 102.462 437.798 102.857L435.979 104.675C432.128 108.524 432.128 114.783 435.979 118.632C436.537 119.189 437.154 119.641 437.798 120.036L435.979 121.854C432.128 125.703 432.128 131.962 435.979 135.811C436.537 136.368 437.154 136.82 437.798 137.216L436.297 138.716H364.146V39.1639H440.326V83.3414C439.975 83.6082 439.616 83.8618 439.295 84.1819ZM364.146 21.5959C364.146 18.3676 366.774 15.7399 370.006 15.7399H434.466C437.697 15.7399 440.326 18.3676 440.326 21.5959V33.3079H364.146V21.5959ZM440.326 156.284C440.326 159.512 437.697 162.14 434.466 162.14H432.427H370.006C366.774 162.14 364.146 159.512 364.146 156.284V144.572H433.229C432.791 147.555 433.686 150.698 435.979 152.99C437.226 154.236 438.736 155.035 440.326 155.473V156.284V156.284Z" fill="black"/>
<path d="M373.54 108.49V108.754L373.768 108.887L402.048 125.384L402.28 125.519L402.512 125.384L430.792 108.887L431.02 108.754V108.49V75.4957V75.2315L430.792 75.0984L402.512 58.6027L402.28 58.4675L402.048 58.6027L373.768 75.0997L373.54 75.2328V75.497V108.49Z" stroke="#373737" stroke-width="0.92"/>
<path fill-rule="evenodd" clip-rule="evenodd" d="M376.908 79.4783C376.613 79.6982 376.295 79.8838 375.959 80.0319V103.954C377.928 104.822 379.107 106.886 378.867 109.043L399.371 121.004C399.666 120.785 399.984 120.599 400.32 120.451V96.5289C398.351 95.6606 397.171 93.5968 397.412 91.4394L376.908 79.4778L376.908 79.4783ZM427.652 79.3454L407.125 91.4398C407.366 93.5971 406.186 95.6608 404.217 96.5292L404.24 120.318C404.576 120.466 404.894 120.652 405.189 120.872L425.694 108.911C425.454 106.753 426.633 104.69 428.602 103.821V79.8994C428.267 79.7513 427.948 79.5657 427.653 79.3459L427.652 79.3454ZM399.361 62.9733L378.857 74.9345C378.898 75.3024 378.898 75.6737 378.857 76.0415L399.362 88.0026C401.091 86.7136 403.449 86.7136 405.178 88.0026L425.684 76.0414C425.643 75.6735 425.643 75.3024 425.684 74.9345L405.18 62.9734C403.451 64.2624 401.092 64.2624 399.363 62.9734L399.361 62.9733ZM374 108.49L402.28 124.987L430.56 108.49V75.4957L402.28 59L374 75.497V108.49Z" fill="#373737"/>
<path d="M364.39 263H373.587C379.603 263 382.088 260.067 382.088 256.239C382.088 252.212 379.304 250.024 376.968 249.875V249.626C379.155 249.03 381.094 247.588 381.094 244.307C381.094 240.578 378.608 237.545 373.289 237.545H364.39V263ZM367.472 260.266V251.416H373.736C377.067 251.416 379.155 253.653 379.155 256.239C379.155 258.476 377.614 260.266 373.587 260.266H367.472ZM367.472 248.732V240.28H373.289C376.669 240.28 378.161 242.07 378.161 244.307C378.161 246.991 375.973 248.732 373.189 248.732H367.472ZM394.511 263.398C399.682 263.398 403.162 259.47 403.162 253.554C403.162 247.588 399.682 243.661 394.511 243.661C389.341 243.661 385.861 247.588 385.861 253.554C385.861 259.47 389.341 263.398 394.511 263.398ZM394.511 260.763C390.584 260.763 388.794 257.382 388.794 253.554C388.794 249.726 390.584 246.295 394.511 246.295C398.439 246.295 400.228 249.726 400.228 253.554C400.228 257.382 398.439 260.763 394.511 260.763ZM408.037 263H410.871V260.067H411.219C411.865 261.111 413.108 263.398 416.787 263.398C421.56 263.398 424.891 259.57 424.891 253.504C424.891 247.489 421.56 243.661 416.737 243.661C413.009 243.661 411.865 245.947 411.219 246.942H410.97V237.545H408.037V263ZM410.92 253.455C410.92 249.179 412.81 246.295 416.389 246.295C420.118 246.295 421.957 249.428 421.957 253.455C421.957 257.531 420.068 260.763 416.389 260.763C412.859 260.763 410.92 257.78 410.92 253.455ZM344.586 289.129C343.841 289.021 343.193 288.785 342.642 288.42C342.09 288.055 341.632 287.575 341.267 286.98C340.901 286.379 340.629 285.674 340.45 284.864C340.271 284.048 340.182 283.146 340.182 282.157C340.182 280.882 340.328 279.78 340.622 278.849C340.916 277.918 341.313 277.151 341.814 276.55C342.323 275.941 342.914 275.493 343.587 275.207C344.26 274.913 344.973 274.767 345.725 274.767C346.627 274.767 347.411 274.931 348.077 275.261C348.75 275.583 349.309 276.052 349.753 276.668C350.197 277.277 350.526 278.018 350.741 278.892C350.963 279.758 351.074 280.736 351.074 281.824C351.074 282.97 350.952 283.976 350.709 284.843C350.465 285.702 350.132 286.433 349.71 287.034C349.287 287.636 348.79 288.108 348.217 288.452C347.644 288.796 347.028 289.021 346.369 289.129C346.477 289.759 346.727 290.264 347.121 290.644C347.515 291.03 348.07 291.224 348.786 291.224C349.13 291.224 349.466 291.166 349.796 291.052C350.132 290.937 350.473 290.744 350.816 290.472L351.665 291.793C351.192 292.18 350.705 292.455 350.204 292.62C349.703 292.785 349.187 292.867 348.657 292.867C348.084 292.867 347.558 292.788 347.078 292.631C346.598 292.473 346.179 292.237 345.821 291.922C345.47 291.614 345.188 291.224 344.973 290.751C344.758 290.285 344.629 289.745 344.586 289.129ZM349.087 282.05C349.087 281.219 349.022 280.464 348.894 279.783C348.772 279.096 348.571 278.508 348.292 278.021C348.013 277.527 347.651 277.144 347.207 276.872C346.77 276.6 346.24 276.464 345.617 276.464C345.016 276.464 344.496 276.607 344.06 276.894C343.63 277.18 343.275 277.57 342.996 278.064C342.717 278.551 342.509 279.124 342.373 279.783C342.237 280.435 342.169 281.13 342.169 281.867C342.169 282.719 342.233 283.493 342.362 284.188C342.491 284.875 342.692 285.466 342.964 285.96C343.243 286.454 343.601 286.837 344.038 287.109C344.475 287.374 345.001 287.507 345.617 287.507C346.219 287.507 346.738 287.364 347.175 287.077C347.612 286.791 347.97 286.4 348.249 285.906C348.535 285.412 348.747 284.836 348.883 284.177C349.019 283.511 349.087 282.802 349.087 282.05ZM361.075 289V281.255C361.075 280.918 361.061 280.643 361.032 280.428C361.011 280.213 360.971 280.045 360.914 279.923C360.864 279.794 360.796 279.704 360.71 279.654C360.631 279.604 360.531 279.579 360.409 279.579C360.266 279.579 360.133 279.622 360.012 279.708C359.89 279.794 359.757 279.934 359.614 280.127C359.478 280.32 359.324 280.578 359.152 280.9C358.988 281.215 358.791 281.606 358.562 282.071V289H356.854V281.459C356.854 281.065 356.839 280.746 356.811 280.503C356.789 280.259 356.75 280.07 356.692 279.934C356.642 279.798 356.574 279.704 356.488 279.654C356.402 279.604 356.299 279.579 356.177 279.579C356.048 279.579 355.926 279.615 355.812 279.687C355.697 279.758 355.568 279.887 355.425 280.073C355.289 280.259 355.135 280.514 354.963 280.836C354.791 281.158 354.587 281.57 354.351 282.071V289H352.632V278.215H354.061L354.146 280.267C354.333 279.858 354.512 279.511 354.684 279.225C354.863 278.938 355.045 278.709 355.231 278.537C355.418 278.358 355.615 278.229 355.822 278.15C356.037 278.064 356.273 278.021 356.531 278.021C357.111 278.021 357.552 278.211 357.853 278.591C358.153 278.97 358.304 279.558 358.304 280.353C358.476 279.98 358.644 279.651 358.809 279.364C358.973 279.071 359.149 278.827 359.335 278.634C359.528 278.433 359.74 278.283 359.969 278.183C360.198 278.075 360.463 278.021 360.764 278.021C362.117 278.021 362.794 279.063 362.794 281.147V289H361.075ZM374.589 283.038C374.589 283.303 374.585 283.525 374.578 283.704C374.571 283.883 374.56 284.051 374.546 284.209H366.973C366.973 285.312 367.281 286.16 367.896 286.755C368.512 287.342 369.4 287.636 370.561 287.636C370.876 287.636 371.191 287.625 371.506 287.604C371.821 287.575 372.125 287.539 372.419 287.496C372.713 287.453 372.992 287.407 373.257 287.356C373.529 287.299 373.78 287.238 374.009 287.174V288.71C373.5 288.853 372.924 288.968 372.279 289.054C371.642 289.147 370.979 289.193 370.292 289.193C369.368 289.193 368.573 289.068 367.907 288.817C367.241 288.567 366.693 288.205 366.264 287.732C365.841 287.253 365.526 286.669 365.318 285.981C365.118 285.287 365.018 284.503 365.018 283.629C365.018 282.87 365.125 282.154 365.34 281.48C365.562 280.8 365.881 280.206 366.296 279.697C366.718 279.182 367.234 278.773 367.843 278.473C368.451 278.172 369.143 278.021 369.916 278.021C370.668 278.021 371.334 278.14 371.914 278.376C372.494 278.612 372.981 278.949 373.375 279.386C373.776 279.815 374.077 280.342 374.277 280.965C374.485 281.581 374.589 282.272 374.589 283.038ZM372.645 282.77C372.666 282.29 372.619 281.853 372.505 281.459C372.39 281.058 372.211 280.714 371.968 280.428C371.731 280.141 371.434 279.919 371.076 279.762C370.718 279.597 370.303 279.515 369.83 279.515C369.422 279.515 369.049 279.593 368.713 279.751C368.376 279.909 368.086 280.131 367.843 280.417C367.599 280.703 367.402 281.047 367.252 281.448C367.102 281.849 367.008 282.29 366.973 282.77H372.645ZM387.104 289H384.697L379.444 282.114V289H377.532V274.96H379.444V281.48L384.59 274.96H386.856L381.313 281.631L387.104 289ZM391.143 287.904C391.143 288.076 391.11 288.241 391.046 288.398C390.981 288.556 390.892 288.696 390.777 288.817C390.67 288.932 390.537 289.021 390.38 289.086C390.222 289.158 390.05 289.193 389.864 289.193C389.678 289.193 389.506 289.158 389.349 289.086C389.191 289.021 389.055 288.932 388.94 288.817C388.833 288.703 388.747 288.567 388.683 288.409C388.618 288.252 388.586 288.083 388.586 287.904C388.586 287.725 388.618 287.557 388.683 287.399C388.747 287.242 388.833 287.106 388.94 286.991C389.055 286.869 389.191 286.776 389.349 286.712C389.506 286.64 389.678 286.604 389.864 286.604C390.05 286.604 390.222 286.64 390.38 286.712C390.537 286.776 390.67 286.866 390.777 286.98C390.892 287.095 390.981 287.235 391.046 287.399C391.11 287.557 391.143 287.725 391.143 287.904ZM395.278 287.904C395.278 288.076 395.246 288.241 395.182 288.398C395.117 288.556 395.028 288.696 394.913 288.817C394.806 288.932 394.673 289.021 394.516 289.086C394.358 289.158 394.186 289.193 394 289.193C393.814 289.193 393.642 289.158 393.484 289.086C393.327 289.021 393.191 288.932 393.076 288.817C392.969 288.703 392.883 288.567 392.818 288.409C392.754 288.252 392.722 288.083 392.722 287.904C392.722 287.725 392.754 287.557 392.818 287.399C392.883 287.242 392.969 287.106 393.076 286.991C393.191 286.869 393.327 286.776 393.484 286.712C393.642 286.64 393.814 286.604 394 286.604C394.186 286.604 394.358 286.64 394.516 286.712C394.673 286.776 394.806 286.866 394.913 286.98C395.028 287.095 395.117 287.235 395.182 287.399C395.246 287.557 395.278 287.725 395.278 287.904ZM399.414 287.904C399.414 288.076 399.382 288.241 399.317 288.398C399.253 288.556 399.163 288.696 399.049 288.817C398.941 288.932 398.809 289.021 398.651 289.086C398.494 289.158 398.322 289.193 398.136 289.193C397.95 289.193 397.778 289.158 397.62 289.086C397.463 289.021 397.326 288.932 397.212 288.817C397.104 288.703 397.019 288.567 396.954 288.409C396.89 288.252 396.857 288.083 396.857 287.904C396.857 287.725 396.89 287.557 396.954 287.399C397.019 287.242 397.104 287.106 397.212 286.991C397.326 286.869 397.463 286.776 397.62 286.712C397.778 286.64 397.95 286.604 398.136 286.604C398.322 286.604 398.494 286.64 398.651 286.712C398.809 286.776 398.941 286.866 399.049 286.98C399.163 287.095 399.253 287.235 399.317 287.399C399.382 287.557 399.414 287.725 399.414 287.904ZM410.758 285.197C410.758 285.863 410.622 286.447 410.35 286.948C410.077 287.45 409.698 287.868 409.211 288.205C408.724 288.535 408.137 288.782 407.449 288.946C406.769 289.111 406.017 289.193 405.193 289.193C404.821 289.193 404.449 289.179 404.076 289.15C403.711 289.122 403.356 289.086 403.013 289.043C402.676 289 402.357 288.95 402.057 288.893C401.756 288.835 401.484 288.774 401.24 288.71V286.862C401.777 287.063 402.379 287.22 403.045 287.335C403.718 287.45 404.481 287.507 405.333 287.507C405.949 287.507 406.472 287.46 406.901 287.367C407.338 287.267 407.693 287.124 407.965 286.938C408.244 286.744 408.445 286.511 408.566 286.239C408.695 285.967 408.76 285.656 408.76 285.305C408.76 284.925 408.652 284.603 408.438 284.338C408.23 284.066 407.954 283.826 407.61 283.618C407.267 283.403 406.873 283.21 406.429 283.038C405.992 282.859 405.544 282.676 405.086 282.49C404.628 282.304 404.176 282.104 403.732 281.889C403.296 281.667 402.905 281.409 402.562 281.115C402.218 280.814 401.938 280.464 401.724 280.062C401.516 279.661 401.412 279.185 401.412 278.634C401.412 278.154 401.512 277.681 401.713 277.216C401.913 276.75 402.225 276.339 402.647 275.98C403.07 275.615 403.611 275.322 404.27 275.1C404.936 274.878 405.727 274.767 406.644 274.767C406.88 274.767 407.134 274.777 407.406 274.799C407.686 274.82 407.965 274.853 408.244 274.896C408.531 274.931 408.81 274.974 409.082 275.024C409.361 275.075 409.619 275.128 409.855 275.186V276.904C409.304 276.747 408.753 276.629 408.201 276.55C407.65 276.464 407.116 276.421 406.601 276.421C405.505 276.421 404.699 276.604 404.184 276.969C403.668 277.334 403.41 277.825 403.41 278.44C403.41 278.82 403.514 279.146 403.722 279.418C403.937 279.69 404.216 279.934 404.56 280.148C404.903 280.363 405.294 280.56 405.73 280.739C406.174 280.911 406.626 281.09 407.084 281.276C407.542 281.463 407.99 281.667 408.427 281.889C408.871 282.111 409.265 282.376 409.608 282.684C409.952 282.984 410.228 283.339 410.436 283.747C410.65 284.155 410.758 284.639 410.758 285.197ZM422.896 276.464L415.731 287.217H423.036V289H413.336V287.571L420.544 276.7H413.529V274.96H422.896V276.464ZM429.256 289.129C428.511 289.021 427.863 288.785 427.312 288.42C426.76 288.055 426.302 287.575 425.937 286.98C425.571 286.379 425.299 285.674 425.12 284.864C424.941 284.048 424.852 283.146 424.852 282.157C424.852 280.882 424.998 279.78 425.292 278.849C425.586 277.918 425.983 277.151 426.484 276.55C426.993 275.941 427.584 275.493 428.257 275.207C428.93 274.913 429.643 274.767 430.395 274.767C431.297 274.767 432.081 274.931 432.747 275.261C433.42 275.583 433.979 276.052 434.423 276.668C434.867 277.277 435.196 278.018 435.411 278.892C435.633 279.758 435.744 280.736 435.744 281.824C435.744 282.97 435.622 283.976 435.379 284.843C435.135 285.702 434.802 286.433 434.38 287.034C433.957 287.636 433.46 288.108 432.887 288.452C432.314 288.796 431.698 289.021 431.039 289.129C431.146 289.759 431.397 290.264 431.791 290.644C432.185 291.03 432.74 291.224 433.456 291.224C433.8 291.224 434.136 291.166 434.466 291.052C434.802 290.937 435.143 290.744 435.486 290.472L436.335 291.793C435.862 292.18 435.375 292.455 434.874 292.62C434.373 292.785 433.857 292.867 433.327 292.867C432.754 292.867 432.228 292.788 431.748 292.631C431.268 292.473 430.849 292.237 430.491 291.922C430.14 291.614 429.857 291.224 429.643 290.751C429.428 290.285 429.299 289.745 429.256 289.129ZM433.757 282.05C433.757 281.219 433.692 280.464 433.563 279.783C433.442 279.096 433.241 278.508 432.962 278.021C432.683 277.527 432.321 277.144 431.877 276.872C431.44 276.6 430.91 276.464 430.287 276.464C429.686 276.464 429.166 276.607 428.729 276.894C428.3 277.18 427.945 277.57 427.666 278.064C427.387 278.551 427.179 279.124 427.043 279.783C426.907 280.435 426.839 281.13 426.839 281.867C426.839 282.719 426.903 283.493 427.032 284.188C427.161 284.875 427.362 285.466 427.634 285.96C427.913 286.454 428.271 286.837 428.708 287.109C429.145 287.374 429.671 287.507 430.287 287.507C430.889 287.507 431.408 287.364 431.845 287.077C432.282 286.791 432.64 286.4 432.919 285.906C433.205 285.412 433.417 284.836 433.553 284.177C433.689 283.511 433.757 282.802 433.757 282.05ZM446.809 284.51C446.809 285.204 446.658 285.838 446.357 286.411C446.057 286.984 445.641 287.478 445.111 287.894C444.589 288.302 443.969 288.62 443.253 288.85C442.537 289.079 441.763 289.193 440.933 289.193C440.725 289.193 440.499 289.186 440.256 289.172C440.02 289.165 439.783 289.15 439.547 289.129C439.311 289.115 439.078 289.097 438.849 289.075C438.627 289.054 438.426 289.029 438.247 289V287.303C438.634 287.396 439.074 287.464 439.568 287.507C440.07 287.55 440.575 287.571 441.083 287.571C441.656 287.571 442.172 287.503 442.63 287.367C443.088 287.231 443.479 287.038 443.801 286.787C444.123 286.529 444.37 286.221 444.542 285.863C444.714 285.498 444.8 285.09 444.8 284.639C444.8 283.765 444.485 283.131 443.854 282.737C443.231 282.336 442.333 282.136 441.158 282.136H438.494V274.96H446.057V276.593H440.256V280.535H441.48C442.154 280.535 442.809 280.596 443.446 280.718C444.084 280.84 444.649 281.054 445.144 281.362C445.645 281.663 446.046 282.071 446.347 282.587C446.655 283.095 446.809 283.736 446.809 284.51Z" fill="black"/>
<path d="M690.096 23.7919H678.376C677.971 23.7919 677.643 24.1207 677.643 24.5239C677.643 24.927 677.971 25.2559 678.376 25.2559H690.096C690.5 25.2559 690.828 24.927 690.828 24.5239C690.828 24.1207 690.5 23.7919 690.096 23.7919Z" fill="black"/>
<path d="M684.236 157.748C686.663 157.748 688.631 155.781 688.631 153.356C688.631 150.93 686.663 148.964 684.236 148.964C681.808 148.964 679.841 150.93 679.841 153.356C679.841 155.781 681.808 157.748 684.236 157.748Z" fill="black"/>
<path d="M735.262 101.361C734.704 100.804 734.086 100.352 733.443 99.956L735.262 98.1385C739.113 94.2898 739.113 88.0306 735.262 84.1819C733.312 82.2338 730.745 81.2802 728.186 81.3043V36.2359V21.5959C728.186 15.1366 722.928 9.88388 716.466 9.88388H652.006C645.543 9.88388 640.286 15.1366 640.286 21.5959V36.2359V79.5797C638.161 79.077 636.142 79.1924 634.551 80.0129C632.633 80.9965 631.468 82.8923 631.352 85.2113C631.287 86.5037 631.237 88.0506 631.179 89.792C630.867 99.3251 630.344 115.28 626.058 124.531C619.654 138.356 620.61 153.931 628.626 167.581C625.007 171.796 622.644 173.466 622.165 173.783C620.817 174.675 620.448 176.494 621.342 177.841C621.906 178.69 622.837 179.15 623.787 179.15C624.344 179.15 624.906 178.993 625.404 178.661C626.591 177.875 629.857 175.425 634.501 169.68C635.295 168.696 635.37 167.318 634.687 166.257C626.747 153.899 625.541 139.588 631.375 126.99C636.162 116.662 636.709 99.9628 637.037 89.9836C637.092 88.2822 637.141 86.7668 637.204 85.5029C637.214 85.3256 637.241 85.2313 637.235 85.217C637.544 85.0488 638.732 85.0642 640.286 85.7515V141.644V156.284C640.286 162.743 645.543 167.996 652.006 167.996H707.807C707.162 168.744 706.527 169.472 705.863 170.252C696.441 181.321 685.759 193.882 667.239 190.716C666.51 190.602 665.76 190.751 665.14 191.157C659.063 195.146 655.803 198.674 655.448 201.642C655.257 203.246 656.396 204.753 658.003 204.945C658.124 204.959 658.246 204.965 658.365 204.965C659.823 204.965 661.073 203.915 661.25 202.431C661.256 202.411 661.86 200.484 667.43 196.673C688.529 199.663 701.1 184.886 710.327 174.046C712.198 171.85 713.974 169.778 715.675 167.996H716.466C722.928 167.996 728.186 162.743 728.186 156.284V155.3C729.557 154.828 730.852 154.082 731.945 152.99L735.262 149.676C739.113 145.827 739.113 139.568 735.262 135.719C734.704 135.162 734.086 134.71 733.443 134.314L735.262 132.497C739.113 128.648 739.113 122.389 735.262 118.54C734.704 117.983 734.086 117.531 733.443 117.135L735.262 115.318C739.113 111.469 739.113 105.21 735.262 101.361ZM731.118 145.535L728.186 148.466L727.802 148.85C726.297 150.357 723.9 150.376 722.326 148.984C722.263 148.929 722.182 148.909 722.122 148.85C720.967 147.695 720.678 146.007 721.228 144.572C721.423 144.063 721.713 143.583 722.122 143.174L722.326 142.971L725.439 139.86C725.782 139.515 726.187 139.279 726.605 139.087C727.109 138.854 727.64 138.718 728.186 138.705C728.217 138.705 728.247 138.687 728.279 138.687C729.307 138.687 730.336 139.076 731.118 139.86C732.684 141.424 732.684 143.971 731.118 145.535ZM731.118 88.3223C732.684 89.8863 732.684 92.434 731.118 93.9981L728.186 96.929L727.802 97.3121C726.297 98.8192 723.9 98.8387 722.326 97.4471C722.263 97.3917 722.182 97.372 722.122 97.3121C720.557 95.7481 720.557 93.2003 722.122 91.6363L722.326 91.4333L725.439 88.3223C726.197 87.5629 727.189 87.1912 728.186 87.168C728.217 87.1672 728.247 87.1499 728.279 87.1499C729.307 87.1499 730.336 87.5388 731.118 88.3223ZM727.802 131.67C726.297 133.177 723.9 133.197 722.326 131.805C722.263 131.75 722.182 131.73 722.122 131.67C720.557 130.106 720.557 127.559 722.122 125.995L722.326 125.792L725.439 122.681C726.197 121.921 727.189 121.549 728.186 121.526C728.217 121.525 728.247 121.508 728.279 121.508C729.307 121.508 730.336 121.897 731.118 122.681C732.684 124.245 732.684 126.792 731.118 128.356L728.186 131.287L727.802 131.67ZM727.802 114.491C726.297 115.998 723.9 116.018 722.326 114.626C722.263 114.571 722.182 114.551 722.122 114.491C720.557 112.927 720.557 110.379 722.122 108.815L722.326 108.612L725.439 105.501C726.197 104.742 727.189 104.37 728.186 104.347C728.217 104.346 728.247 104.329 728.279 104.329C729.307 104.329 730.336 104.718 731.118 105.501C732.684 107.065 732.684 109.613 731.118 111.177L728.186 114.108L727.802 114.491ZM721.295 84.1819L717.979 87.4959C714.128 91.3446 714.128 97.6038 717.979 101.453C718.537 102.01 719.154 102.462 719.798 102.857L717.979 104.675C714.128 108.524 714.128 114.783 717.979 118.632C718.537 119.189 719.154 119.641 719.798 120.036L717.979 121.854C714.128 125.703 714.128 131.962 717.979 135.811C718.537 136.368 719.154 136.82 719.798 137.216L718.297 138.716H646.146V39.1639H722.326V83.3414C721.975 83.6082 721.616 83.8618 721.295 84.1819ZM646.146 21.5959C646.146 18.3676 648.774 15.7399 652.006 15.7399H716.466C719.697 15.7399 722.326 18.3676 722.326 21.5959V33.3079H646.146V21.5959ZM722.326 156.284C722.326 159.512 719.697 162.14 716.466 162.14H714.427H652.006C648.774 162.14 646.146 159.512 646.146 156.284V144.572H715.229C714.791 147.555 715.686 150.698 717.979 152.99C719.226 154.236 720.736 155.035 722.326 155.473V156.284V156.284Z" fill="black"/>
<path d="M655.54 108.49V108.754L655.768 108.887L684.048 125.384L684.28 125.519L684.512 125.384L712.792 108.887L713.02 108.754V108.49V75.4957V75.2315L712.792 75.0984L684.512 58.6027L684.28 58.4675L684.048 58.6027L655.768 75.0997L655.54 75.2328V75.497V108.49Z" stroke="#373737" stroke-width="0.92"/>
<path fill-rule="evenodd" clip-rule="evenodd" d="M658.908 79.4783C658.613 79.6982 658.295 79.8838 657.959 80.0319V103.954C659.928 104.822 661.107 106.886 660.867 109.043L681.371 121.004C681.666 120.785 681.984 120.599 682.32 120.451V96.5289C680.351 95.6606 679.171 93.5968 679.412 91.4394L658.908 79.4778L658.908 79.4783ZM709.652 79.3454L689.125 91.4398C689.366 93.5971 688.186 95.6608 686.217 96.5292L686.24 120.318C686.576 120.466 686.894 120.652 687.189 120.872L707.694 108.911C707.454 106.753 708.633 104.69 710.602 103.821V79.8994C710.267 79.7513 709.948 79.5657 709.653 79.3459L709.652 79.3454ZM681.361 62.9733L660.857 74.9345C660.898 75.3024 660.898 75.6737 660.857 76.0415L681.362 88.0026C683.091 86.7136 685.449 86.7136 687.178 88.0026L707.684 76.0414C707.643 75.6735 707.643 75.3024 707.684 74.9345L687.18 62.9734C685.451 64.2624 683.092 64.2624 681.363 62.9734L681.361 62.9733ZM656 108.49L684.28 124.987L712.56 108.49V75.4957L684.28 59L656 75.497V108.49Z" fill="#373737"/>
<path d="M654.157 245.5C653.213 240.28 649.036 237.197 643.916 237.197C637.403 237.197 632.68 242.219 632.68 250.273C632.68 258.327 637.403 263.348 643.916 263.348C649.036 263.348 653.213 260.266 654.157 255.045H651.075C650.329 258.575 647.296 260.464 643.916 260.464C639.292 260.464 635.663 256.885 635.663 250.273C635.663 243.661 639.292 240.081 643.916 240.081C647.296 240.081 650.329 241.97 651.075 245.5H654.157ZM664.358 263.447C667.689 263.447 669.429 261.658 670.026 260.415H670.175V263H673.108V250.422C673.108 244.357 668.485 243.661 666.049 243.661C663.165 243.661 659.884 244.655 658.392 248.135L661.176 249.129C661.823 247.737 663.351 246.246 666.148 246.246C668.845 246.246 670.175 247.675 670.175 250.124V250.223C670.175 251.64 668.733 251.516 665.253 251.963C661.711 252.423 657.845 253.206 657.845 257.581C657.845 261.31 660.729 263.447 664.358 263.447ZM664.806 260.812C662.469 260.812 660.779 259.768 660.779 257.73C660.779 255.493 662.817 254.797 665.104 254.499C666.347 254.349 669.678 254.001 670.175 253.405V256.089C670.175 258.476 668.286 260.812 664.806 260.812ZM678.462 263H681.395V250.919C681.395 248.334 683.434 246.445 686.218 246.445C687.001 246.445 687.809 246.594 688.007 246.643V243.661C687.672 243.636 686.901 243.611 686.466 243.611C684.179 243.611 682.191 244.903 681.495 246.793H681.296V243.909H678.462V263ZM698.659 263.398C703.83 263.398 707.31 259.47 707.31 253.554C707.31 247.588 703.83 243.661 698.659 243.661C693.489 243.661 690.009 247.588 690.009 253.554C690.009 259.47 693.489 263.398 698.659 263.398ZM698.659 260.763C694.732 260.763 692.942 257.382 692.942 253.554C692.942 249.726 694.732 246.295 698.659 246.295C702.587 246.295 704.376 249.726 704.376 253.554C704.376 257.382 702.587 260.763 698.659 260.763ZM714.72 237.545H711.787V263H714.72V237.545ZM624.586 289.129C623.841 289.021 623.193 288.785 622.642 288.42C622.09 288.055 621.632 287.575 621.267 286.98C620.901 286.379 620.629 285.674 620.45 284.864C620.271 284.048 620.182 283.146 620.182 282.157C620.182 280.882 620.328 279.78 620.622 278.849C620.916 277.918 621.313 277.151 621.814 276.55C622.323 275.941 622.914 275.493 623.587 275.207C624.26 274.913 624.973 274.767 625.725 274.767C626.627 274.767 627.411 274.931 628.077 275.261C628.75 275.583 629.309 276.052 629.753 276.668C630.197 277.277 630.526 278.018 630.741 278.892C630.963 279.758 631.074 280.736 631.074 281.824C631.074 282.97 630.952 283.976 630.709 284.843C630.465 285.702 630.132 286.433 629.71 287.034C629.287 287.636 628.79 288.108 628.217 288.452C627.644 288.796 627.028 289.021 626.369 289.129C626.477 289.759 626.727 290.264 627.121 290.644C627.515 291.03 628.07 291.224 628.786 291.224C629.13 291.224 629.466 291.166 629.796 291.052C630.132 290.937 630.473 290.744 630.816 290.472L631.665 291.793C631.192 292.18 630.705 292.455 630.204 292.62C629.703 292.785 629.187 292.867 628.657 292.867C628.084 292.867 627.558 292.788 627.078 292.631C626.598 292.473 626.179 292.237 625.821 291.922C625.47 291.614 625.188 291.224 624.973 290.751C624.758 290.285 624.629 289.745 624.586 289.129ZM629.087 282.05C629.087 281.219 629.022 280.464 628.894 279.783C628.772 279.096 628.571 278.508 628.292 278.021C628.013 277.527 627.651 277.144 627.207 276.872C626.77 276.6 626.24 276.464 625.617 276.464C625.016 276.464 624.496 276.607 624.06 276.894C623.63 277.18 623.275 277.57 622.996 278.064C622.717 278.551 622.509 279.124 622.373 279.783C622.237 280.435 622.169 281.13 622.169 281.867C622.169 282.719 622.233 283.493 622.362 284.188C622.491 284.875 622.692 285.466 622.964 285.96C623.243 286.454 623.601 286.837 624.038 287.109C624.475 287.374 625.001 287.507 625.617 287.507C626.219 287.507 626.738 287.364 627.175 287.077C627.612 286.791 627.97 286.4 628.249 285.906C628.535 285.412 628.747 284.836 628.883 284.177C629.019 283.511 629.087 282.802 629.087 282.05ZM641.075 289V281.255C641.075 280.918 641.061 280.643 641.032 280.428C641.011 280.213 640.971 280.045 640.914 279.923C640.864 279.794 640.796 279.704 640.71 279.654C640.631 279.604 640.531 279.579 640.409 279.579C640.266 279.579 640.133 279.622 640.012 279.708C639.89 279.794 639.757 279.934 639.614 280.127C639.478 280.32 639.324 280.578 639.152 280.9C638.988 281.215 638.791 281.606 638.562 282.071V289H636.854V281.459C636.854 281.065 636.839 280.746 636.811 280.503C636.789 280.259 636.75 280.07 636.692 279.934C636.642 279.798 636.574 279.704 636.488 279.654C636.402 279.604 636.299 279.579 636.177 279.579C636.048 279.579 635.926 279.615 635.812 279.687C635.697 279.758 635.568 279.887 635.425 280.073C635.289 280.259 635.135 280.514 634.963 280.836C634.791 281.158 634.587 281.57 634.351 282.071V289H632.632V278.215H634.061L634.146 280.267C634.333 279.858 634.512 279.511 634.684 279.225C634.863 278.938 635.045 278.709 635.231 278.537C635.418 278.358 635.615 278.229 635.822 278.15C636.037 278.064 636.273 278.021 636.531 278.021C637.111 278.021 637.552 278.211 637.853 278.591C638.153 278.97 638.304 279.558 638.304 280.353C638.476 279.98 638.644 279.651 638.809 279.364C638.973 279.071 639.149 278.827 639.335 278.634C639.528 278.433 639.74 278.283 639.969 278.183C640.198 278.075 640.463 278.021 640.764 278.021C642.117 278.021 642.794 279.063 642.794 281.147V289H641.075ZM653.858 288.603C653.371 288.789 652.87 288.925 652.354 289.011C651.846 289.104 651.32 289.15 650.775 289.15C649.071 289.15 647.757 288.688 646.833 287.765C645.916 286.841 645.458 285.491 645.458 283.715C645.458 282.863 645.59 282.089 645.855 281.395C646.12 280.7 646.493 280.105 646.973 279.611C647.452 279.117 648.025 278.738 648.691 278.473C649.357 278.201 650.091 278.064 650.894 278.064C651.452 278.064 651.975 278.104 652.462 278.183C652.949 278.261 653.414 278.39 653.858 278.569V280.353C653.393 280.109 652.917 279.934 652.43 279.826C651.95 279.712 651.452 279.654 650.937 279.654C650.457 279.654 650.002 279.747 649.572 279.934C649.15 280.113 648.777 280.374 648.455 280.718C648.133 281.062 647.879 281.48 647.692 281.975C647.506 282.469 647.413 283.027 647.413 283.65C647.413 284.954 647.728 285.931 648.358 286.583C648.996 287.228 649.877 287.55 651.001 287.55C651.509 287.55 652 287.493 652.473 287.378C652.952 287.263 653.414 287.091 653.858 286.862V288.603ZM665.954 288.603C665.467 288.789 664.966 288.925 664.45 289.011C663.942 289.104 663.415 289.15 662.871 289.15C661.167 289.15 659.853 288.688 658.929 287.765C658.012 286.841 657.554 285.491 657.554 283.715C657.554 282.863 657.686 282.089 657.951 281.395C658.216 280.7 658.589 280.105 659.068 279.611C659.548 279.117 660.121 278.738 660.787 278.473C661.453 278.201 662.187 278.064 662.989 278.064C663.548 278.064 664.071 278.104 664.558 278.183C665.045 278.261 665.51 278.39 665.954 278.569V280.353C665.489 280.109 665.012 279.934 664.525 279.826C664.046 279.712 663.548 279.654 663.032 279.654C662.552 279.654 662.098 279.747 661.668 279.934C661.245 280.113 660.873 280.374 660.551 280.718C660.229 281.062 659.974 281.48 659.788 281.975C659.602 282.469 659.509 283.027 659.509 283.65C659.509 284.954 659.824 285.931 660.454 286.583C661.091 287.228 661.972 287.55 663.097 287.55C663.605 287.55 664.096 287.493 664.568 287.378C665.048 287.263 665.51 287.091 665.954 286.862V288.603ZM671.143 287.904C671.143 288.076 671.11 288.241 671.046 288.398C670.981 288.556 670.892 288.696 670.777 288.817C670.67 288.932 670.537 289.021 670.38 289.086C670.222 289.158 670.05 289.193 669.864 289.193C669.678 289.193 669.506 289.158 669.349 289.086C669.191 289.021 669.055 288.932 668.94 288.817C668.833 288.703 668.747 288.567 668.683 288.409C668.618 288.252 668.586 288.083 668.586 287.904C668.586 287.725 668.618 287.557 668.683 287.399C668.747 287.242 668.833 287.106 668.94 286.991C669.055 286.869 669.191 286.776 669.349 286.712C669.506 286.64 669.678 286.604 669.864 286.604C670.05 286.604 670.222 286.64 670.38 286.712C670.537 286.776 670.67 286.866 670.777 286.98C670.892 287.095 670.981 287.235 671.046 287.399C671.11 287.557 671.143 287.725 671.143 287.904ZM675.278 287.904C675.278 288.076 675.246 288.241 675.182 288.398C675.117 288.556 675.028 288.696 674.913 288.817C674.806 288.932 674.673 289.021 674.516 289.086C674.358 289.158 674.186 289.193 674 289.193C673.814 289.193 673.642 289.158 673.484 289.086C673.327 289.021 673.191 288.932 673.076 288.817C672.969 288.703 672.883 288.567 672.818 288.409C672.754 288.252 672.722 288.083 672.722 287.904C672.722 287.725 672.754 287.557 672.818 287.399C672.883 287.242 672.969 287.106 673.076 286.991C673.191 286.869 673.327 286.776 673.484 286.712C673.642 286.64 673.814 286.604 674 286.604C674.186 286.604 674.358 286.64 674.516 286.712C674.673 286.776 674.806 286.866 674.913 286.98C675.028 287.095 675.117 287.235 675.182 287.399C675.246 287.557 675.278 287.725 675.278 287.904ZM679.414 287.904C679.414 288.076 679.382 288.241 679.317 288.398C679.253 288.556 679.163 288.696 679.049 288.817C678.941 288.932 678.809 289.021 678.651 289.086C678.494 289.158 678.322 289.193 678.136 289.193C677.95 289.193 677.778 289.158 677.62 289.086C677.463 289.021 677.326 288.932 677.212 288.817C677.104 288.703 677.019 288.567 676.954 288.409C676.89 288.252 676.857 288.083 676.857 287.904C676.857 287.725 676.89 287.557 676.954 287.399C677.019 287.242 677.104 287.106 677.212 286.991C677.326 286.869 677.463 286.776 677.62 286.712C677.778 286.64 677.95 286.604 678.136 286.604C678.322 286.604 678.494 286.64 678.651 286.712C678.809 286.776 678.941 286.866 679.049 286.98C679.163 287.095 679.253 287.235 679.317 287.399C679.382 287.557 679.414 287.725 679.414 287.904ZM682.207 278.215H683.915L683.969 280.202C684.606 279.436 685.233 278.881 685.849 278.537C686.472 278.193 687.098 278.021 687.729 278.021C688.846 278.021 689.691 278.383 690.264 279.106C690.844 279.83 691.112 280.904 691.069 282.329H689.179C689.2 281.384 689.061 280.7 688.76 280.277C688.466 279.848 688.033 279.633 687.46 279.633C687.209 279.633 686.955 279.679 686.697 279.772C686.447 279.858 686.185 280.002 685.913 280.202C685.648 280.396 685.365 280.646 685.064 280.954C684.764 281.262 684.441 281.634 684.098 282.071V289H682.207V278.215ZM703.251 283.521C703.251 284.359 703.133 285.129 702.896 285.831C702.66 286.526 702.32 287.124 701.876 287.625C701.432 288.119 700.891 288.506 700.254 288.785C699.617 289.057 698.893 289.193 698.084 289.193C697.311 289.193 696.616 289.075 696 288.839C695.391 288.595 694.872 288.241 694.442 287.775C694.02 287.31 693.694 286.733 693.465 286.046C693.243 285.358 693.132 284.567 693.132 283.672C693.132 282.834 693.25 282.071 693.486 281.384C693.723 280.689 694.063 280.095 694.507 279.601C694.951 279.099 695.492 278.713 696.129 278.44C696.766 278.161 697.49 278.021 698.299 278.021C699.072 278.021 699.763 278.143 700.372 278.387C700.988 278.623 701.507 278.974 701.93 279.439C702.359 279.898 702.685 280.471 702.907 281.158C703.136 281.846 703.251 282.633 703.251 283.521ZM701.339 283.607C701.339 282.941 701.264 282.361 701.113 281.867C700.97 281.366 700.762 280.951 700.49 280.621C700.218 280.285 699.885 280.034 699.491 279.869C699.104 279.697 698.671 279.611 698.191 279.611C697.633 279.611 697.153 279.722 696.752 279.944C696.358 280.159 696.032 280.449 695.774 280.814C695.524 281.18 695.338 281.606 695.216 282.093C695.101 282.573 695.044 283.077 695.044 283.607C695.044 284.273 695.116 284.857 695.259 285.358C695.409 285.86 695.62 286.279 695.893 286.615C696.165 286.945 696.494 287.195 696.881 287.367C697.268 287.532 697.704 287.614 698.191 287.614C698.75 287.614 699.226 287.507 699.62 287.292C700.021 287.07 700.347 286.776 700.598 286.411C700.855 286.046 701.042 285.623 701.156 285.144C701.278 284.657 701.339 284.145 701.339 283.607ZM704.948 278.215H707.075L709.718 285.348L710.287 287.088L710.878 285.305L713.499 278.215H715.551L711.318 289H709.17L704.948 278.215ZM727.163 285.477C727.163 286.071 727.041 286.601 726.798 287.066C726.554 287.525 726.214 287.911 725.777 288.227C725.34 288.542 724.825 288.782 724.23 288.946C723.636 289.111 722.992 289.193 722.297 289.193C721.531 289.193 720.854 289.107 720.267 288.936C719.687 288.764 719.2 288.524 718.806 288.216C718.412 287.908 718.115 287.543 717.914 287.12C717.714 286.698 717.613 286.232 717.613 285.724C717.613 284.864 717.853 284.123 718.333 283.5C718.813 282.877 719.554 282.311 720.557 281.803C719.64 281.337 718.97 280.822 718.548 280.256C718.125 279.683 717.914 279.028 717.914 278.29C717.914 277.839 718.007 277.402 718.193 276.979C718.38 276.557 718.659 276.181 719.031 275.852C719.411 275.522 719.883 275.261 720.449 275.067C721.015 274.867 721.681 274.767 722.447 274.767C723.171 274.767 723.804 274.845 724.349 275.003C724.9 275.153 725.362 275.372 725.734 275.658C726.107 275.945 726.386 276.292 726.572 276.7C726.758 277.108 726.852 277.563 726.852 278.064C726.852 278.881 726.622 279.576 726.164 280.148C725.713 280.721 725.068 281.223 724.23 281.652C724.646 281.86 725.033 282.089 725.391 282.34C725.749 282.59 726.06 282.87 726.325 283.178C726.59 283.486 726.794 283.829 726.938 284.209C727.088 284.589 727.163 285.011 727.163 285.477ZM724.939 278.215C724.939 277.577 724.714 277.105 724.263 276.797C723.819 276.482 723.192 276.324 722.383 276.324C721.581 276.324 720.954 276.478 720.503 276.786C720.059 277.094 719.837 277.556 719.837 278.172C719.837 278.451 719.891 278.709 719.998 278.945C720.105 279.182 720.27 279.404 720.492 279.611C720.721 279.819 721.004 280.023 721.341 280.224C721.677 280.424 722.078 280.628 722.544 280.836C723.353 280.456 723.955 280.062 724.349 279.654C724.743 279.239 724.939 278.759 724.939 278.215ZM725.133 285.616C725.133 285.351 725.09 285.093 725.004 284.843C724.918 284.592 724.764 284.345 724.542 284.102C724.32 283.858 724.023 283.615 723.65 283.371C723.278 283.128 722.805 282.877 722.232 282.619C721.745 282.855 721.334 283.092 720.997 283.328C720.668 283.557 720.399 283.794 720.191 284.037C719.991 284.273 719.848 284.521 719.762 284.778C719.676 285.036 719.633 285.308 719.633 285.595C719.633 285.917 719.701 286.203 719.837 286.454C719.98 286.698 720.174 286.905 720.417 287.077C720.66 287.249 720.951 287.378 721.287 287.464C721.624 287.55 721.989 287.593 722.383 287.593C722.762 287.593 723.12 287.553 723.457 287.475C723.794 287.396 724.084 287.278 724.327 287.12C724.578 286.955 724.775 286.751 724.918 286.508C725.061 286.257 725.133 285.96 725.133 285.616Z" fill="black"/>
</g>
<defs>
<clipPath id="clip0">
<rect width="795" height="304" fill="white"/>
</clipPath>
</defs>
</svg>
