<svg xmlns="http://www.w3.org/2000/svg" viewBox="0 0 186.26 260.87"><defs><style>.cls-1{isolation:isolate;}.cls-13,.cls-2,.cls-21,.cls-27,.cls-3{fill:#f2d8be;}.cls-13,.cls-16,.cls-2,.cls-20,.cls-21,.cls-35,.cls-37{mix-blend-mode:multiply;}.cls-4{fill:#010101;}.cls-5{fill:#2c2d2d;}.cls-6,.cls-7{fill:#707274;}.cls-27,.cls-41,.cls-42,.cls-43,.cls-7,.cls-8{mix-blend-mode:screen;}.cls-8{fill:#7f8183;}.cls-9{fill:#f7e8de;}.cls-10{fill:#de6259;}.cls-11{fill:#dfdfc9;}.cls-12{fill:#a0a092;}.cls-13,.cls-43{opacity:0.4;}.cls-14{fill:#f18367;}.cls-15{fill:#325293;}.cls-16{fill:#0574b9;opacity:0.5;}.cls-17{fill:#aa4d9d;}.cls-18{fill:#c33927;}.cls-19{fill:#fcbc23;}.cls-20,.cls-23{fill:#d28028;}.cls-20,.cls-21{opacity:0.6;}.cls-22{fill:#f7cabf;}.cls-24{fill:#3c1c10;}.cls-25{fill:#fff;}.cls-26{fill:#c09268;}.cls-27{opacity:0.8;}.cls-28{fill:#d46141;}.cls-29{fill:#a31e22;}.cls-30{fill:#56100f;}.cls-31{fill:#2b2d2e;}.cls-32{fill:#951b1e;}.cls-33{fill:#c22128;}.cls-34{fill:#808386;}.cls-35{fill:#57595c;}.cls-36,.cls-37,.cls-42{fill:#b0b1b4;}.cls-38{fill:none;stroke:#dbdfe1;stroke-miterlimit:10;stroke-width:0.5px;}.cls-39{fill:#27282a;}.cls-40{fill:#3b3e40;}.cls-41{fill:#ef4233;}.cls-43{fill:#616367;}</style></defs><g class="cls-1"><g id="Layer_1" data-name="Layer 1"><path class="cls-2" d="M146,143.88v.25l4.32-2.63c.21-.39.4-.78.58-1.18C149.21,141.47,147.57,142.65,146,143.88Z" transform="translate(-38.47 -7.45)"/><path class="cls-3" d="M161.86,124.41a14.41,14.41,0,0,1,4.29-8.58c4-4,4.37-3.54,4.37-3.54l-2.8,8.76Z" transform="translate(-38.47 -7.45)"/><path class="cls-3" d="M154.17,136.75c2.49-1.73,4.85-3.59,7.24-5.45,1.08-.84,2.13-1.77,3.21-2.66l-.22-2.9-.44-2.57-17.91,9.29-.08,10.1C148.65,140.55,151.41,138.66,154.17,136.75Z" transform="translate(-38.47 -7.45)"/><path class="cls-2" d="M151.55,138.56c.09-.27.17-.55.24-.82.42-1.69,1-4,.39-5.69a11.23,11.23,0,0,0-1.06-2.22l-5.07,2.63-.08,10.1C147.8,141.19,149.67,139.86,151.55,138.56Z" transform="translate(-38.47 -7.45)"/><polygon class="cls-4" points="138.72 152.14 139.55 152.44 161.23 89.98 160.4 89.68 138.72 152.14"/><polygon class="cls-5" points="120.26 137.45 138.72 152.14 160.4 89.68 136.33 87.69 120.26 137.45"/><polygon class="cls-6" points="122.67 133.26 138.92 146.19 158 91.22 136.82 89.47 122.67 133.26"/><path class="cls-7" d="M183.83,107.16c3.9-2.11,7.89-4.09,11.83-6.14l.81-2.35L195,98.55c-8.45,4.49-16.85,9.11-24.87,14.29l-1.26,3.91A152.17,152.17,0,0,1,183.83,107.16Z" transform="translate(-38.47 -7.45)"/><path class="cls-7" d="M164.31,143.22l13.09,10.42,7.33-21.13Q174.47,137.78,164.31,143.22Z" transform="translate(-38.47 -7.45)"/><polygon class="cls-8" points="122.67 133.26 137.01 90.8 158 91.22 136.82 89.47 122.67 133.26"/><path class="cls-6" d="M167.52,146.6c.54.19.73,1.05.43,1.91s-1,1.41-1.52,1.22-.72-1-.42-1.91S167,146.41,167.52,146.6Z" transform="translate(-38.47 -7.45)"/><path class="cls-3" d="M171.26,116.34c-3.79,2.49-9.61,4.43-10.24,9.7-.19,1.51-.16,4.19,2,4.1,4.18-.19,3.51-6.48,6-8.51,1.45-1.19,3.76-1.67,4.17-3.81C173.44,116.32,172.6,115.47,171.26,116.34Z" transform="translate(-38.47 -7.45)"/><path class="cls-3" d="M198.39,182.77l-3.66,1.46c-3.86,1.48-7.94,2.16-11.85,3.46-.27,6.18-.67,14.71,1,22.93,2.74,13.68,6.75,32.46,6.75,32.46s-.48,3.21,1.39,3.4,3.88.18,3.92-.47a4.08,4.08,0,0,1,2.56-3.75c1.08-4.56.26-52.71-.07-58.09C198.39,183.68,198.38,183.22,198.39,182.77Z" transform="translate(-38.47 -7.45)"/><path class="cls-2" d="M198.39,182.77l-3.66,1.46c-3.86,1.48-7.94,2.16-11.85,3.46-.27,6.18-.67,14.71,1,22.93,2.74,13.68,6.75,32.46,6.75,32.46s-.48,3.21,1.39,3.4,3.88.18,3.92-.47a4.08,4.08,0,0,1,2.56-3.75c1.08-4.56.26-52.71-.07-58.09C198.39,183.68,198.38,183.22,198.39,182.77Z" transform="translate(-38.47 -7.45)"/><path class="cls-9" d="M198.88,236.6a41.9,41.9,0,0,1-.4,5.66,4.08,4.08,0,0,0-2.56,3.75c0,.65-2.06.65-3.92.47s-1.39-3.4-1.39-3.4-.46-2.12-1.16-5.44A34.36,34.36,0,0,0,198.88,236.6Z" transform="translate(-38.47 -7.45)"/><path class="cls-10" d="M206.07,257.34c-10,.23-16.14-1.45-19.31-2.7-.18-2.38-.11-6.7,0-8.29.11-2,3.87-3.27,3.87-3.27s-.48,3.21,1.39,3.4,3.88.18,3.92-.47a4.08,4.08,0,0,1,2.56-3.75s3.07-1,5.76,2.93c1.11,1.62,5,1.73,9,2.08,3.66.32,10.24-1.57,11.33,5.68C222.23,254.54,216.82,257.09,206.07,257.34Z" transform="translate(-38.47 -7.45)"/><path class="cls-11" d="M213.24,247.27l-1.44-.12A9.19,9.19,0,0,0,208,252a16,16,0,0,0-.33,5.31c9.68-.45,14.66-2.82,16.88-4.33C223.48,245.7,216.9,247.59,213.24,247.27Z" transform="translate(-38.47 -7.45)"/><path class="cls-12" d="M206.07,257.34c10.75-.25,16.16-2.8,18.5-4.39a13.8,13.8,0,0,1,.16,1.93c0,1.17-8.7,5.47-22.11,5.09s-15.29-2.61-15.68-4a7.34,7.34,0,0,1-.18-1.36C189.93,255.89,196.1,257.57,206.07,257.34Z" transform="translate(-38.47 -7.45)"/><path class="cls-3" d="M197.37,185.88c-1.3.22-2.59.45-3.89.65-4.07.65-8.21.46-12.29.91-1.54,6-3.68,14.25-3.75,22.64-.11,13.95,0,33.17,0,33.17s-1.12,3,.66,3.61,3.76,1,3.94.37a4.05,4.05,0,0,1,3.27-3.13c2-4.24,11-51.51,11.83-56.85C197.17,186.76,197.27,186.31,197.37,185.88Z" transform="translate(-38.47 -7.45)"/><path class="cls-13" d="M194.61,200.9c1.3-6.77,2.26-12.06,2.49-13.65.07-.49.17-.94.27-1.37-1.3.22-2.59.45-3.89.65-4.07.65-8.21.46-12.29.91a113,113,0,0,0-3.51,18.15C181.37,204.82,192.61,201.46,194.61,200.9Z" transform="translate(-38.47 -7.45)"/><path class="cls-9" d="M186.82,238.64a40.58,40.58,0,0,1-1.55,5.46,4.05,4.05,0,0,0-3.27,3.13c-.18.62-2.15.2-3.94-.37s-.66-3.61-.66-3.61,0-2.17,0-5.57A34.63,34.63,0,0,0,186.82,238.64Z" transform="translate(-38.47 -7.45)"/><path class="cls-14" d="M189.61,260.44c-9.8-1.87-15.49-4.8-18.34-6.7.31-2.36,1.26-6.57,1.67-8.11.52-1.93,4.46-2.38,4.46-2.38s-1.12,3,.66,3.61,3.76,1,3.94.37a4.05,4.05,0,0,1,3.27-3.13s3.21-.33,5,4.07c.76,1.82,4.58,2.75,8.38,3.92,3.52,1.08,10.34.62,9.93,7.94C206,261.09,200.18,262.46,189.61,260.44Z" transform="translate(-38.47 -7.45)"/><path class="cls-11" d="M198.68,252.09l-1.06-.32a9.15,9.15,0,0,0-4.68,3.88,19.89,19.89,0,0,0-2.16,5c9.82,1.69,15.31.4,17.83-.62C209,252.71,202.2,253.17,198.68,252.09Z" transform="translate(-38.47 -7.45)"/><path class="cls-12" d="M189.61,260.44c10.57,2,16.38.65,19-.41a14.69,14.69,0,0,1-.25,1.92c-.22,1.15-9.63,3.53-22.67.34s-14.42-5.77-14.52-7.17a8,8,0,0,1,.1-1.38C174.12,255.64,179.81,258.57,189.61,260.44Z" transform="translate(-38.47 -7.45)"/><path class="cls-15" d="M110.91,151.31s-2.27,25.65,17.83,25.82,43.87,4.87,50,9.29l-3.67,15.83s18.18-3.18,31.81-6.72c0,0-3.59-23.88-10.13-30.78-8.39-8.84-49.11-12.56-49.11-12.56L141,146Z" transform="translate(-38.47 -7.45)"/><path class="cls-16" d="M192,199c-.76-6-2.06-11.91-3.28-17.8a.54.54,0,0,1,.36-.66,31.43,31.43,0,0,0,5.77-1.62c-3.31-1.58-7.32-1.32-10.84-2.13a.54.54,0,0,1-.31-.78c1.33-3.14,3.34-5.91,4.72-9-1.91.92-3.56,2.29-5.4,3.37a.53.53,0,0,1-.72-.19c-.63-1-1.32-2.39-2.43-2.89a11.26,11.26,0,0,0-4.58-.58c-3.71,0-7.4.22-11.08.55-5.54.49-11.08,1.21-16.63,1.52-7.22.41-17.61.17-20.21-8.28a.53.53,0,0,1,.37-.65c4.75-1.58,9.27-3.6,13.85-5.61,1.88-.82,3.86-1.47,5.76-2.28L141,146l-30.06,5.31s-2.27,25.65,17.83,25.82,43.87,4.87,50,9.29l-3.67,15.83S182.81,200.89,192,199Z" transform="translate(-38.47 -7.45)"/><path class="cls-17" d="M125.89,167.58a112,112,0,0,1-15.21,2.54c-1.69-5.59-7.25-24.07-10.93-32.88C92.12,119,97.54,96.15,108,92.39c5.63-2,5.84,1.17,14.94,8,13.26,9.9,18,21.46,17.44,34.07-.25,5.53,8.47,17.61,9.36,21.84C144.3,159.77,132.14,166.11,125.89,167.58Z" transform="translate(-38.47 -7.45)"/><path class="cls-18" d="M111.35,89.64a8.62,8.62,0,0,0,1.87,3.78s3.36.55,6.74-3.78c0,0,.26-2.41-.74-3.44Z" transform="translate(-38.47 -7.45)"/><polygon class="cls-3" points="82.02 81.7 76.34 95.72 65.08 91.67 69.93 77.72 82.02 81.7"/><polygon class="cls-2" points="82.02 81.7 76.34 95.72 65.08 91.67 69.93 77.72 82.02 81.7"/><path class="cls-19" d="M79.22,74.76c8.54,8.06,24.24,14.39,30.47,11a8.65,8.65,0,0,1-.93-1.09c8.91,2.45,9.14-8.9,16.84-13.6,4.19-2.56,7.78-5.92,11.71-8.86,2.59-1.94,5.94-3.46,7.67-6.3,2.7-1.24,5.65-3.59,6.67-6.3a4.1,4.1,0,0,0,0-3.46c-.73-1.46-2.71-3.32-1.31-5,.92-1.09,2.09-1.94,2.58-3.33a6.82,6.82,0,0,0-.18-4.14A6.9,6.9,0,0,0,148,29.07c.37-4.65-2.81-8.61-6.74-10.94-2.7-1.6-5.41-3.14-8.1-4.76a42.26,42.26,0,0,0-7.79-3.81,37.63,37.63,0,0,0-19.11-1.5c-16.87,3.2-29,16.15-33.76,31.38C68.94,50.68,69.19,65.29,79.22,74.76Z" transform="translate(-38.47 -7.45)"/><path class="cls-20" d="M72.47,39.44c.12-.38.24-.77.37-1.15-.14.79-.25,1.58-.34,2.37-.48,4.45-.35,11.7,3.87,14.41a.4.4,0,0,0,.58-.36c-.59-4.29-.65-9.35,2.2-12.79a18.5,18.5,0,0,0,.2,8.53.4.4,0,0,0,.76,0,20.61,20.61,0,0,1,.57-2.12,18.49,18.49,0,0,0,0,2.47,21.8,21.8,0,0,0,4.94,12.16c.26.34.86.12.7-.33-2.27-6.49-.78-17.17,6-20.34A15.35,15.35,0,0,0,91,47.75c0,.43.52.7.73.27a16.42,16.42,0,0,1,3.4-4.49,10.35,10.35,0,0,0-.67,7.32.4.4,0,0,0,.73.07c1.92-4.5,7.73-3.4,11.07-6.09a9.41,9.41,0,0,0,3.3-6.86,11.34,11.34,0,0,1-.82,7.07.4.4,0,0,0,.56.52c4.3-2.15,6-5.64,6.59-10.34.31-2.74.24-5.74,1.54-8.24a12,12,0,0,1,6-5.5,18.42,18.42,0,0,1,17,1.18c2.6,1.64,5,4,5.62,7.19.54,2.82,2.75,5.26,2.6,8.14a.39.39,0,0,0,.74.17,10,10,0,0,0,1-2.77,4.08,4.08,0,0,1-.64,3.17,9,9,0,0,0-1.33,2.81c-.68,3.39,1.15,6.52,1.22,9.88a.39.39,0,0,0,.68.25c.44-.52.92-1.09,1.38-1.7-1.09,2.65-4,4.93-6.6,6.15-1.73,2.84-5.08,4.36-7.67,6.3-3.93,2.94-7.52,6.3-11.71,8.86-7.7,4.7-7.93,16-16.84,13.6a8.65,8.65,0,0,0,.93,1.09c-6.23,3.35-21.93-3-30.47-11C69.19,65.29,68.94,50.68,72.47,39.44Z" transform="translate(-38.47 -7.45)"/><path class="cls-3" d="M91.16,55.92c1.88-2.94,4.6-3.15,6.17-.59s.29,5.93.29,5.93c.87-1.33,1.09-3.86,1.34-3.73a32.49,32.49,0,0,0,7.42-2.81c3.17-1.61-.51-1.7,11.82-5.63,7.59-2.42,10.14-13.33,11-21.34a80.37,80.37,0,0,1,11.42,1.58,27.81,27.81,0,0,1,7.28,20C147.31,61.59,142,63.74,145,67.12a4.13,4.13,0,0,0,3.59.73s1.22,3.24-1.18,3.84-2.68,1.4-2.93,3.47-.22,13.69-16.9,15.81S94.2,82,95.05,66.14C88.09,66.45,89.27,58.87,91.16,55.92Z" transform="translate(-38.47 -7.45)"/><path class="cls-21" d="M133.16,85.28c-1.46-2-2.8-4.26-2.33-6.85a14.36,14.36,0,0,0,.45-3.56,3.06,3.06,0,0,0-.36-1.46q-1.83-1.16-2.4.42c-.18.42-.35.84-.52,1.26a.4.4,0,0,1-.73-.07c-.18-.71-.22-1.47-.45-2.17-.69-2-2.85-.61-3.61.57a.39.39,0,0,1-.61.1c-1.32-1.54-2.77,1.76-3.3,2.73a.41.41,0,0,1-.62.11.83.83,0,0,0-.76-.21c-1.77,1.06-1.57,4.55-1.2,6.34a28.42,28.42,0,0,0,1.31,5c.5,1.25,1.22,2.38,1.83,3.57a33,33,0,0,0,7.75-.06,24.68,24.68,0,0,0,9.48-3A6.57,6.57,0,0,1,133.16,85.28Z" transform="translate(-38.47 -7.45)"/><path class="cls-22" d="M122.88,88.07A4.07,4.07,0,0,1,119,86.54a7.45,7.45,0,0,1-1.39-4.87C120.3,81.61,122.57,84.27,122.88,88.07Z" transform="translate(-38.47 -7.45)"/><path class="cls-23" d="M142,51.61c-2.25-1.39-5.15,1.42-5.48,3.9a.4.4,0,0,0,.58.45c.69-.48,1-1.44,1.57-2.06A3.81,3.81,0,0,1,141,52.79c2.32-.24,1.93,4.83,1.79,6.4,0,.14.17.23.21.08C143.66,57,144.54,53.17,142,51.61Z" transform="translate(-38.47 -7.45)"/><path class="cls-24" d="M139.62,63.64c-.6,2.09-1.58,3.6-2.19,3.38s-.64-2.11-.05-4.2,1.57-3.6,2.19-3.37S140.2,61.56,139.62,63.64Z" transform="translate(-38.47 -7.45)"/><path class="cls-25" d="M138.78,61.59c-.21.62-.53,1-.71.95s-.15-.67.06-1.28.53-1,.71-1S139,61,138.78,61.59Z" transform="translate(-38.47 -7.45)"/><path class="cls-22" d="M132.65,69c-.73,1-3.41.37-6-1.53s-4.07-4.25-3.35-5.3,3.4-.36,6,1.52S133.36,67.93,132.65,69Z" transform="translate(-38.47 -7.45)"/><path class="cls-26" d="M94.4,57.38c.9.43,1,1.67,1.06,2.54a5.9,5.9,0,0,1-.75,3.68.1.1,0,0,1-.16-.06c0-.8.23-1.57.28-2.37-.61.37-1.32.6-1.92,1-.11.06-.24-.08-.15-.18.64-.6,1.4-1,2.07-1.55a4.87,4.87,0,0,0-.55-2.26c-.58-1-2.18,2.1-2.4,2.45a.12.12,0,0,1-.23-.08C91.76,59.58,93.07,56.73,94.4,57.38Z" transform="translate(-38.47 -7.45)"/><path class="cls-19" d="M102.2,61.69c.26,2.31,3.48,3.31,2.06,5.87-1,1.84-2.42,3.93-1.14,6s5.75,4.38,2.22,7a.26.26,0,0,0,.22.47,1.25,1.25,0,0,0,.25-.09.32.32,0,0,0,.3.1c2.88-.7,6.42-1.78,5-5.55a10.32,10.32,0,0,0-2.53-3.09A3.59,3.59,0,0,1,110,66.6c1.21-.43,2.58-.78,2.94-2.24a4.77,4.77,0,0,0-.83-3.57c-.45-.85-1.18-2-.69-3a3.54,3.54,0,0,1,2.24-1.85,18.64,18.64,0,0,1,4.65-.59c3.17-.19,7.37-.41,10-2.42a6.59,6.59,0,0,0,2.49-4.17c.54-2.53,1.37-4.54,4-5.37,3.29-1,7-1.48,8.82-4.88a9.15,9.15,0,0,0,1-5.67c1.74-3-.25-6.47-2.79-8.23a19.07,19.07,0,0,0-12-2.93c-3.84.26-8.08,1.66-10.15,5.2a10.35,10.35,0,0,0-1.22,6.38,10.84,10.84,0,0,0,.77,2.73c0,1,.08,2,0,3a6.57,6.57,0,0,1-2.89,5.07c-2.28,1.53-5.86,1.72-7.71,3.84a3.31,3.31,0,0,0-1,2.35c.06,1.18.63,2.56.26,3.72-.6,1.85-2.59,2.9-4,4.11C103,59.06,102,60.16,102.2,61.69Z" transform="translate(-38.47 -7.45)"/><path class="cls-20" d="M104.07,58.11c1.36-1.21,3.35-2.26,4-4.11.37-1.16-.2-2.54-.26-3.72a3.31,3.31,0,0,1,1-2.35,6,6,0,0,1,1.26-1c-2.81,2.52-1.57,3.88-1.4,6,.15,1.94-.26,2.86-2.19,4.93a8.7,8.7,0,0,0-.72,1c0-.28.79-1.73.55-1.49,0,0-1.37,1.14-1.4,1.17a4.18,4.18,0,0,0-1.13,4c.41,1.83,2.46,2.78,1.47,4.62s-3,4-1.8,6.13c.76,1.37,2.35,2.19,3.69,3.25.3.23,0-.27-.27-.51-2.6-2.2-2.66-3.06-2.45-4.9.23-2.07,2.48-3,3.62-4.46,1.89-2.49,1.56-5,.62-7.69a3.24,3.24,0,0,1,1.15-3.62,11.63,11.63,0,0,1,4.2-2.41c2.42-.73,5-.78,7.41-1.74a10.08,10.08,0,0,0,5-4.8c1.23-2.15,2.24-4.78,4.45-6.12,2.56-1.54,5.7-1.74,8.32-3.22A10.74,10.74,0,0,0,145,28.51a5,5,0,0,1-.3,4.33,9.15,9.15,0,0,1-1,5.67c-1.85,3.4-5.53,3.85-8.82,4.88-2.62.83-3.45,2.84-4,5.37a6.59,6.59,0,0,1-2.49,4.17c-2.65,2-6.85,2.23-10,2.42a18.64,18.64,0,0,0-4.65.59,3.54,3.54,0,0,0-2.24,1.85c-.49,1,.24,2.15.69,3a4.77,4.77,0,0,1,.83,3.57c-.36,1.46-1.73,1.81-2.94,2.24a3.59,3.59,0,0,0-1.48,5.89,10.32,10.32,0,0,1,2.53,3.09c1.46,3.77-2.08,4.85-5,5.55a.32.32,0,0,1-.3-.1,1.25,1.25,0,0,1-.25.09.26.26,0,0,1-.22-.47c3.53-2.66-.85-4.79-2.22-7s.12-4.21,1.14-6c1.42-2.56-1.8-3.56-2.06-5.87C102,60.16,103,59.06,104.07,58.11Z" transform="translate(-38.47 -7.45)"/><path class="cls-3" d="M102.11,107.41s-1.29-.16,13.88,13.94,23.74,21.43,27.94,18.23,4.24-6.4-3.47-14.46-24.05-25.85-24.05-25.85a11,11,0,0,0-9.52-4.3C98.39,95.34,100.63,105.28,102.11,107.41Z" transform="translate(-38.47 -7.45)"/><path class="cls-27" d="M106.76,111c-2.37-2.74-4.65-5.64-5-9.4a9.38,9.38,0,0,1,.77-5c-3.14,3-1.57,9.19-.43,10.82,0,0-1.29-.16,13.88,13.94l2,1.79C114.13,119.15,110.36,115.11,106.76,111Z" transform="translate(-38.47 -7.45)"/><path class="cls-21" d="M140.46,125.12c-7.7-8.06-24.05-25.85-24.05-25.85a10.74,10.74,0,0,0-5.63-3.84c5.46,5,10.71,10.31,14.66,16.59a40,40,0,0,1,5.12,11.18,52.66,52.66,0,0,0,1.83,6.17,14.49,14.49,0,0,1,1.26,5.33.39.39,0,0,1-.38.41,7.92,7.92,0,0,1-2.18-.41c6.19,4.9,10.31,6.81,12.84,4.88C148.12,136.39,148.17,133.18,140.46,125.12Z" transform="translate(-38.47 -7.45)"/><path class="cls-28" d="M97.64,89.59c.75,1.19,3.53,1.33,4.79,1.75a36.44,36.44,0,0,0,4.27,1.15,47.94,47.94,0,0,0-5.2.92c-2.37.59-6.09,1.68-7,4.24,0,.07,0,.65.16.5a18.82,18.82,0,0,1,7.69-3.89c1.53-.39,3.08-.75,4.63-1.08.18,0,.51-.15.89-.27a1.09,1.09,0,0,0,.81.26,2.06,2.06,0,0,0,.36,0l.06,0c1.75.33,5.42-1.78,5.77-3.72.31-1.73-1.12-2.93-2.75-1.66a10.68,10.68,0,0,0-2.52,3,10.38,10.38,0,0,0-.77-7.46c-1.47-2.68-4.3-2.18-4.25,1a16.17,16.17,0,0,0,1.61,5.59,16.55,16.55,0,0,0,.72,1.72,27.33,27.33,0,0,1-4.35-1.24c-1.34-.54-3.14-.73-4.42-1.45,0-.1-.06-.18-.15-.18h-.18C97.47,88.73,97.55,89.44,97.64,89.59Zm15.84-1.43a1.08,1.08,0,0,1,.24.13.19.19,0,0,1,.24.08c1.44,2-3.35,3.72-4.53,4.35a.24.24,0,0,1-.28-.35C109.92,91.43,111.77,87.48,113.48,88.16Zm-7.71-1c-.34-.94-1.47-5.15.72-4.65a3.69,3.69,0,0,1,2.27,2.15,9.72,9.72,0,0,1,0,7.06C107.44,92.26,106.06,88.06,105.77,87.21Z" transform="translate(-38.47 -7.45)"/><path class="cls-3" d="M126.72,99.4s0-4.59,2.43-5c3.08-.51,4,.63,5.82,3.7a112.53,112.53,0,0,1,5.29,11.22c2.47,5.44,5,10.86,7.38,16.35,1.31,3.09,3.45,6.36,2,9.79-1,2.39-3,5-5.68,5.17a14,14,0,0,1-6.74-1.7C133.39,136.86,126.72,99.4,126.72,99.4Z" transform="translate(-38.47 -7.45)"/><path class="cls-3" d="M127.44,100.8c-1-1.08-5-7-5.86-8.12a22.89,22.89,0,0,1-4-8.75,14,14,0,0,1-.35-5.3c.11-.25.23-.5.37-.75.57-1,1.72.21,1.88.81s.26,1,.36,1.52c0-.75.11-1.52.1-2.19,0-1,.1-2.72.81-3.51,1-1.11,2,.52,2.14,1.34a11.19,11.19,0,0,1,.18,1.16.92.92,0,0,0,0-.16c.2-1.65.17-4.39,2.1-5,1.13-.33,1.25,1.9,1.3,2.44a33.7,33.7,0,0,1-.06,3.89,4.71,4.71,0,0,0,.15,1.28c0-1,.41-2.11.51-3.14s.34-3.07,1.68-3.47c1-.3,1.5.63,1.66,1.51a7.12,7.12,0,0,1-.37,2.66,18,18,0,0,0-.34,3.84,14.16,14.16,0,0,0,1.82,3.7c1.28,2,3.36,5.58,3.58,7.91.19,2.09-1.46,4-3,5.57C131.05,99.19,128.16,101.6,127.44,100.8Z" transform="translate(-38.47 -7.45)"/><path class="cls-26" d="M126.76,79.43a17.37,17.37,0,0,0,.3,2.15,8.46,8.46,0,0,0,.16.85,26.72,26.72,0,0,0,1,2.88,10.94,10.94,0,0,1-1.73-6.52h0A5.53,5.53,0,0,1,126.76,79.43Z" transform="translate(-38.47 -7.45)"/><path class="cls-26" d="M123.25,77.81a18.51,18.51,0,0,0,.22,3.38,8.89,8.89,0,0,0,.19,1c.36,1.46,1,2.85,1.44,4.28A42.89,42.89,0,0,1,123.31,82,14.2,14.2,0,0,1,123,76.4,9.42,9.42,0,0,1,123.25,77.81Z" transform="translate(-38.47 -7.45)"/><path class="cls-26" d="M120.17,80.43a19.35,19.35,0,0,0,.4,2.88c0,.11.05.21.08.32s.09.49.14.74c.17.78.39,1.54.62,2.3a11.53,11.53,0,0,1-1.15-2.8,14.13,14.13,0,0,1-.35-4.53A10.16,10.16,0,0,1,120.17,80.43Z" transform="translate(-38.47 -7.45)"/><path class="cls-26" d="M143.18,81.18s-5.19,3.62-9-2.46C134.22,78.72,136.19,85.41,143.18,81.18Z" transform="translate(-38.47 -7.45)"/><path class="cls-19" d="M84.32,107.33c3.21-3.31,7.21-4,3.29-10.28s.29-11,9.21-13.56c0,0,3.31-2,4.76.38s5.25,5.72.74,9.24S99.92,98.7,102,101s6.43,7.53.82,10.59-6,2.92-3.19,5.3,2,3.69.51,6,.24,1.92,2.44,2.84,5.48,2.8-3.66,7.9c0,0,3.79-3.95.67-5.63s-7.11,0-6.23-5.72c0,0-3.09,3.78-4.26.11,0,0,2.21,1.87,3-2,.17-.79-.74-3.41-5.26-4.35S81.11,110.64,84.32,107.33Z" transform="translate(-38.47 -7.45)"/><path class="cls-20" d="M91.25,123.26c1.61-.51,2-2.48,1.71-4-.8-3.57-6.08-3.4-7.13-6.27.5,0,1-.71,1.41-1.48.38,1.21,1,2.73,2.15,2.67,1.79-.1,2-2.12,2.58-3.54.32,1.4,1,3.7,2.25,2.33s1.68-3.8,2-5.63c.06-.51.27-1.3-.09-1.74a2.32,2.32,0,0,0-2.58-.36c-2.13.89-3.85,2.92-5.16,4.92a5,5,0,0,1,1-2.75.36.36,0,0,0-.39-.53,8,8,0,0,0-1.82.75c1.09-1.45,2.45-2.71,3.1-4.42a4.9,4.9,0,0,0,.23-3.31A23.24,23.24,0,0,1,89,96.2c.41.62.93,1.21,1.49,1.06s.78-.79,1-1.47a3.46,3.46,0,0,0,2.08,2.65A.36.36,0,0,0,94,98.1c0-1.71-.36-3.4-.3-5.11a6,6,0,0,1,2.65-4.84c.31-.24,0-.66-.33-.6a8.78,8.78,0,0,0-4.65,2.39c.49-1.34.77-2.69-.29-3.16a2.59,2.59,0,0,0-1.24-.2,23.58,23.58,0,0,1,7-3.09s3.31-2,4.76.38,5.25,5.72.74,9.24S99.92,98.7,102,101s6.43,7.53.82,10.59-6,2.92-3.19,5.3,2,3.69.51,6,.24,1.92,2.44,2.84,5.48,2.8-3.66,7.9c0,0,3.79-3.95.67-5.63s-7.11,0-6.23-5.72c0,0-2.71,3.3-4,.72A2.19,2.19,0,0,0,91.25,123.26Z" transform="translate(-38.47 -7.45)"/><path class="cls-29" d="M178,197.91s-9.78,23.35-17.82,26.89-68.86,3.89-78.3.71L78.71,192.6Z" transform="translate(-38.47 -7.45)"/><path class="cls-30" d="M91.28,208.21c6.57,1.19,65.2,2.44,82.68-1.74,2.42-4.76,4-8.56,4-8.56L78.71,192.6l1.24,13A77.15,77.15,0,0,0,91.28,208.21Z" transform="translate(-38.47 -7.45)"/><rect class="cls-31" x="136.36" y="251.67" width="7.17" height="8.14"/><rect class="cls-31" x="65.92" y="251.67" width="7.17" height="8.14"/><path class="cls-32" d="M46.35,22.94S35.8,25.38,39.12,43.38,71.68,173.38,72,174.3c0,0,2.71,11.6,14.17,7,0,0,10.55-1.53,10.85-11.6a113.62,113.62,0,0,0-3-16.17c-2.41-9.46-25.32-100.4-25.32-100.4S72.28,14.39,46.35,22.94Z" transform="translate(-38.47 -7.45)"/><path class="cls-32" d="M82,191.81S87,172.87,96,171.06s24.8,4,53.11,2.44,34.08-3.72,38,5.57a25,25,0,0,1,.26,12.21c-1.57,6.37-6.21,11.82-13.72,11.48S87,210.65,82,191.81Z" transform="translate(-38.47 -7.45)"/><path class="cls-33" d="M82,191.15s4.8-15.49,13.64-17,24.18,3.3,51.78,2,33.22-3,37.05,4.56a17.41,17.41,0,0,1,.26,10,12.82,12.82,0,0,1-13.38,9.39C164.06,199.84,86.88,206.57,82,191.15Z" transform="translate(-38.47 -7.45)"/><path class="cls-34" d="M184.15,262.22l-83.51.17s-9.7-2.65-11-8.22l-5.24-55.46-6.58-3.92,5.44,60.08S85.35,268,100,268.32h87.35s2.92-.36,2.92-2.74C190.3,265.58,191.11,261.78,184.15,262.22Z" transform="translate(-38.47 -7.45)"/><path class="cls-35" d="M85.07,205.93l-.68-7.22-6.58-3.92.64,7.06A40.9,40.9,0,0,0,85.07,205.93Z" transform="translate(-38.47 -7.45)"/><path class="cls-36" d="M85.7,256c-1.49-3.44-1.78-8.32-2.38-12l.89,9.87s1.92,11.91,14.84,13.31C93.35,264.94,89.11,263.9,85.7,256Z" transform="translate(-38.47 -7.45)"/><path class="cls-33" d="M47.7,31.1s-8.84,2-6.06,17.13S68.93,157.2,69.18,158c0,0,2.27,9.72,11.88,5.88,0,0,8.84-1.28,9.09-9.72a94.93,94.93,0,0,0-2.52-13.56c-2-7.93-21.23-84.15-21.23-84.15S69.43,23.93,47.7,31.1Z" transform="translate(-38.47 -7.45)"/><path class="cls-36" d="M66.82,160.41s-2.44,3.18-2.62,4.6,5.66,36.46,26.33,39.28,78.19.74,78.19.74,5.4.14,6.1-4.55S176.23,189.42,164,188s-66.05,6.84-69.12-7.07C91.15,164,87,154.39,87,154.39Z" transform="translate(-38.47 -7.45)"/><path class="cls-37" d="M164,188c-12.23-1.41-66.05,6.84-69.12-7.07C91.15,164,87,154.39,87,154.39l-2.36.71c3.77,7.28,5.26,15.64,7.62,23.48.94,3.1,1,5.67,3.62,7.77a18.41,18.41,0,0,0,8,3.55c6.81,1.33,13.93,1.5,20.84,1.54,7.24.05,14.5,0,21.74-.18,1.9,0,3.84-.08,5.77,0a72.25,72.25,0,0,1,12.21.5c3.56.49,8.23,2.23,8.89,6.34a16.2,16.2,0,0,1,0,5.25,4.83,4.83,0,0,0,1.49-2.91C175.53,195.79,176.23,189.42,164,188Z" transform="translate(-38.47 -7.45)"/><path class="cls-37" d="M74.69,168.46A36.25,36.25,0,0,0,81,164.1c2.43-2.21,5-4,8.11-4.16-1.25-3.62-2.07-5.55-2.07-5.55l-20.19,6s-2.44,3.18-2.62,4.6a19.44,19.44,0,0,0,.44,3.1A9.14,9.14,0,0,0,74.69,168.46Z" transform="translate(-38.47 -7.45)"/><path class="cls-36" d="M64.2,165a16.17,16.17,0,0,1-1.75-14.69c1.48-3.82,6.18-6.2,11.19-8.49,13.37-6.1,86.51-6.28,95.69-.44,0,0,5.5,3.72,1,10.08s-15.55,2-22.63,2-53.13-4.78-68.86,8.84C69,170.9,65,166.33,64.2,165Z" transform="translate(-38.47 -7.45)"/><path class="cls-38" d="M66.12,162.88s-4-6.07-1-12c1.4-2.8,6.58-6.11,11.36-7.79,12.72-4.46,81.71-4.62,90.44-.35,0,0,5.24,2.72,1,7.38s-14.81,1.48-21.54,1.48S96.72,147.2,81,158.64C68.48,167.72,66.87,163.85,66.12,162.88Z" transform="translate(-38.47 -7.45)"/><path class="cls-39" d="M173.06,144.19a7.89,7.89,0,0,0-.47-2,7.22,7.22,0,0,0-1.19-1.12c-8.17-5.2-64.68-5.85-90.14-2a2.81,2.81,0,0,0-.56.8,14.51,14.51,0,0,0,4.09,5.5,10.62,10.62,0,0,0,7.5,2c5.72-.31,11.28-1.68,17-1.89s11.25-.17,16.88-.18c10.92,0,22-.19,32.77,1.64,3.58.61,9.49,1.93,13.17.26A3.89,3.89,0,0,0,173.06,144.19Z" transform="translate(-38.47 -7.45)"/><path class="cls-40" d="M171.63,143.54a6.54,6.54,0,0,0-.45-1.82,6.8,6.8,0,0,0-1.16-1c-7.91-4.76-62.67-5.35-87.35-1.84a2.56,2.56,0,0,0-.54.73A16.25,16.25,0,0,0,83.54,142a17.49,17.49,0,0,0,2.55,2.61,10.74,10.74,0,0,0,7.26,1.87c5.56-.28,10.94-1.54,16.53-1.72s10.9-.16,16.35-.17c10.58,0,21.29-.18,31.76,1.5,3.47.56,9.2,1.76,12.77.24A3.4,3.4,0,0,0,171.63,143.54Z" transform="translate(-38.47 -7.45)"/><path class="cls-37" d="M74.34,153a2.1,2.1,0,1,1-2.1-2.12A2.11,2.11,0,0,1,74.34,153Z" transform="translate(-38.47 -7.45)"/><path class="cls-37" d="M73.9,153.24a1.31,1.31,0,1,1-1.31-1.32A1.32,1.32,0,0,1,73.9,153.24Z" transform="translate(-38.47 -7.45)"/><path class="cls-41" d="M39.17,37s-.53-10.21,8.65-13.53,16.73,2.08,19.44,14.11c0,0-3.76-14.42-15.29-13.8C42.8,24.24,38.25,31,40.08,43.12,40.08,43.12,39.38,39.58,39.17,37Z" transform="translate(-38.47 -7.45)"/><path class="cls-42" d="M67,172.57s4.2,15.66,10.88,23c0,0,5.38,5.84,12.46,7.57,0,0,8,1.32,31.59,1.19s49.28,1.19,50.33-2.26c0,0-2.23.53-7.08,1.2s-35.39.13-48.24-.13-22,.14-28-1.66C81,199,73.64,191,67,172.57Z" transform="translate(-38.47 -7.45)"/><path class="cls-32" d="M45.24,60.37a59.6,59.6,0,0,0,20.62-4.51A40.57,40.57,0,0,1,45.24,60.37Z" transform="translate(-38.47 -7.45)"/><path class="cls-32" d="M59,115.74a59.67,59.67,0,0,0,20.63-4.51A40.48,40.48,0,0,1,59,115.74Z" transform="translate(-38.47 -7.45)"/><path class="cls-33" d="M119.49,174.36s18,2,30.37,1.13,30.58-4.78,34.78,3.36a16.34,16.34,0,0,1,1.7,8.71,12.53,12.53,0,0,0-1.31-9.62c-2.88-4.51-9.44-5.1-13.89-4.84s-23.6,1.72-31.07,2S119.49,174.36,119.49,174.36Z" transform="translate(-38.47 -7.45)"/><path class="cls-43" d="M86.57,139s54.65-4.91,81.39,1.46C168,140.42,128.12,136.44,86.57,139Z" transform="translate(-38.47 -7.45)"/></g></g></svg>