<svg xmlns="http://www.w3.org/2000/svg" viewBox="0 0 450.2 221.59"><defs><style>.cls-1{fill:#d01f34;}.cls-2{fill:#ec6064;}.cls-3{fill:#fab522;}.cls-4{fill:#1b1530;}.cls-5{fill:#fff;}.cls-10,.cls-6,.cls-9{fill:none;stroke-linecap:round;stroke-width:1.97px;}.cls-6{stroke:#96a0d1;}.cls-6,.cls-9{stroke-miterlimit:10;}.cls-7{fill:#96a0d1;}.cls-8{fill:#d5d8ee;}.cls-10,.cls-9{stroke:#1b1530;}.cls-10{stroke-linejoin:round;}</style></defs><g id="Layer_2" data-name="Layer 2"><g id="Capa_1" data-name="Capa 1"><path class="cls-1" d="M149.5,60.26a2.61,2.61,0,0,1-2.3.07,8.16,8.16,0,0,1-2-1.31,3.86,3.86,0,0,1-6.91,2.16,7.09,7.09,0,0,1-1.84,2.49,3.58,3.58,0,0,1-5-.19A5.06,5.06,0,0,1,130,60.34a7.37,7.37,0,0,1,1.65-4.8,13.86,13.86,0,0,1,12.21-5.49c1.83.17,4.21.85,5.3,2.48a6.93,6.93,0,0,1,.69,1.77,11.53,11.53,0,0,1,.82,3.15A3,3,0,0,1,149.5,60.26Z"/><path class="cls-2" d="M136.14,73.89a19.63,19.63,0,0,0,8.2-7.67c1.08-1.86,1.74-3.9.84-6a3.71,3.71,0,0,0-2.33-2.17c-1.56-.41-3.17.48-4.41,1.52-.81.68-3.67,3.83-4.83,2.79a1.69,1.69,0,0,1-.46-1.11,5.46,5.46,0,0,1,1.24-3.79,12.89,12.89,0,0,1,6.3-4.22,7.45,7.45,0,0,1,3.87-.55c.86.14,1.33.74,2,1.25a16.94,16.94,0,0,0,2.49,1.55,9.4,9.4,0,0,0,3.6,1.12,5.09,5.09,0,0,0,3.57-1c2.61-2.09.94-4.77-.87-6.68a22.85,22.85,0,0,0-6.51-5,15.48,15.48,0,0,0-10.75-.53,31.83,31.83,0,0,0-9.79,5.16c-5,3.54-9.91,7.47-13.3,12.59a10.6,10.6,0,0,0-1.94,4.71c-.23,2.54,1.07,4.86,2.57,6.81s3.29,4.51,5.73,4.87a7.51,7.51,0,0,0,3.16-.49c1.54-.46,3.11-.86,4.68-1.22a44.69,44.69,0,0,0,4.49-.94A18,18,0,0,0,136.14,73.89Z"/><polygon class="cls-3" points="131.54 75.98 113.77 57.69 80.82 104.57 102.73 119.67 131.54 75.98"/><path class="cls-1" d="M171.79,59a2.62,2.62,0,0,0-.4,2.28,8.14,8.14,0,0,0,1,2.15,3.87,3.87,0,0,0-3.13,6.54,6.85,6.85,0,0,0-2.72,1.46,3.91,3.91,0,0,0-1.31,2.74,3.84,3.84,0,0,0,.79,2.24,4.93,4.93,0,0,0,2.89,1.91,7.3,7.3,0,0,0,5-.94A13.88,13.88,0,0,0,181.09,66c.09-1.83-.25-4.29-1.7-5.6a7.12,7.12,0,0,0-1.66-.94,11.68,11.68,0,0,0-3-1.25A3,3,0,0,0,171.79,59Z"/><path class="cls-4" d="M172.24,74.44l8.82-43.5a2.26,2.26,0,0,0-1.66-2.64L177,27.69a2.26,2.26,0,0,0-2.78,1.8l-7.87,43.8a2.27,2.27,0,0,0,1.76,2.62l1.42.3A2.27,2.27,0,0,0,172.24,74.44Z"/><path class="cls-5" d="M170.79,71.34l6.14-37.57a2,2,0,0,0-1.13-2.29L174.18,31c-.87-.29-1.75.42-1.91,1.54l-5.49,37.84A2,2,0,0,0,168,72.6l1,.26A1.6,1.6,0,0,0,170.79,71.34Z"/><path class="cls-2" d="M156.39,70.24a19.7,19.7,0,0,1,8.76-7c2-.8,4.11-1.17,6,0A3.75,3.75,0,0,1,173,65.86c.19,1.6-.92,3.06-2.13,4.14-.79.71-4.31,3.09-3.45,4.38a1.7,1.7,0,0,0,1,.62,5.46,5.46,0,0,0,3.93-.69,12.88,12.88,0,0,0,5.07-5.64,7.4,7.4,0,0,0,1.09-3.75,4.57,4.57,0,0,0-.94-2.17,17.78,17.78,0,0,1-1.19-2.68,9.88,9.88,0,0,1-.6-3.72,5.16,5.16,0,0,1,1.49-3.4c2.43-2.29,4.85-.25,6.48,1.81a22.89,22.89,0,0,1,4,7.16,15.53,15.53,0,0,1-1,10.72,32.22,32.22,0,0,1-6.51,9c-4.22,4.46-8.8,8.74-14.35,11.36a10.39,10.39,0,0,1-4.93,1.26c-2.55-.13-4.66-1.75-6.38-3.51s-4-3.9-4-6.37a7.69,7.69,0,0,1,.92-3.06c.68-1.46,1.3-3,1.88-4.45A45.32,45.32,0,0,1,155,72.51,20,20,0,0,1,156.39,70.24Z"/><path class="cls-2" d="M360.2,221.59l1-41.74H397l13.72.75,0-.12L437.15,115a8.09,8.09,0,0,1,10.75,0V221.59Z"/><path class="cls-5" d="M412.89,221.59l-.2-.17c-3.23-8.55-13.65-36.11-15.69-41.57l13.72.75,0-.12c2.48-.49,4.38-.78,4.52-.55.39.67,6.74,19.65,7.15,20.4s4.18,15.91,5.39,21.26Z"/><path class="cls-4" d="M425.05,221.59l-8.81-24.38-6.52-18,18.49-54,4.84-14.13a9.31,9.31,0,0,1,9.86-6.23l3.68.41,3.61.41-2.29,115.93Z"/><path class="cls-6" d="M415.29,189.73c10.55-18.39,20.76-53,19.59-57.11-1-3.56-3.25-6.24-5-6.83"/><path class="cls-4" d="M413.79,191.73s-22-13.54-21.58-24,6.1-13.37,13.6-5c4.1,4.55,7.13,15.84,7.13,15.84Z"/><polygon class="cls-3" points="440.5 221.59 446.59 105.25 450.2 105.66 450.2 221.59 440.5 221.59"/><path class="cls-7" d="M65.06,192.1A29,29,0,0,0,67.56,204a29.43,29.43,0,0,0,27,17.63H370.07l8.78-25.15,1-2.91h0l5.29-15.21.75-2.1,4.73-13.58H94.54a29.29,29.29,0,0,0-17.26,5.58,28.86,28.86,0,0,0-3.89,3.36,29.34,29.34,0,0,0-7.29,12.81c-.18.63-.33,1.26-.45,1.91A28.63,28.63,0,0,0,65.06,192.1Z"/><path class="cls-8" d="M318,199.06a7.23,7.23,0,0,0-.24,7.21,13.29,13.29,0,0,0,2,2.46,13,13,0,0,1,1.47,1.73c1.81,2.67,1.56,6.68-.65,9.79a12.11,12.11,0,0,1-1.1,1.33H322a.91.91,0,0,0,.18-.21c2.65-3.76,2.92-8.69.64-12a16.14,16.14,0,0,0-1.65-2,11.73,11.73,0,0,1-1.71-2.08,5.76,5.76,0,0,1,4.68-8.1,12,12,0,0,1,4.38,1.18l.49.2a56.59,56.59,0,0,0,14.68,3.69,18.08,18.08,0,0,0,8.51-.62,8.31,8.31,0,0,0,5.61-6.75c.23-2.84-1.3-5.2-2.8-7.48-.43-.67-.88-1.36-1.27-2-2.66-4.73-2.54-12,2.32-15.6a8.6,8.6,0,0,1,8.6-.47,6.4,6.4,0,0,1,4,5.38c.12,2.16-.82,4.23-1.82,6.41a17.86,17.86,0,0,0-2.05,6.45,9.71,9.71,0,0,0,8.28,10,10,10,0,0,0,5.79-1.06l1-2.91a8.93,8.93,0,0,1-6.55,2,7.78,7.78,0,0,1-6.56-7.9,16.93,16.93,0,0,1,1.84-5.74c1.07-2.29,2.17-4.67,2-7.33a8.43,8.43,0,0,0-5.15-7.07,10.49,10.49,0,0,0-10.59.67c-5.72,4.18-5.94,12.69-2.87,18.16.41.72.88,1.43,1.35,2.16,1.36,2.1,2.66,4.07,2.46,6.25-.2,2.43-2.32,4.28-4.34,5a16.53,16.53,0,0,1-7.59.53,54.73,54.73,0,0,1-14.15-3.56l-.49-.19a13.35,13.35,0,0,0-5.13-1.34A7.24,7.24,0,0,0,318,199.06Z"/><path class="cls-4" d="M75.38,41.64c1.89,7,8.79,12.08,9.42,19.27C85.27,66.3,82,71.3,78.45,75.38a55.06,55.06,0,0,1-7.54,7.26c-2.65,2.07-5.54,3.82-8.1,6-7.73,6.57-11.94,16.53-13.6,26.54s-1,20.24-.63,30.38c.11,2.87.13,6-1.59,8.28-2.93-2.79-3.65-7.13-5.57-10.68-3.16-5.83-9.32-9.24-14.73-13.08S16,120.81,16.14,114.18c.21-8.41,9.18-15,8.46-23.38-.53-6.3-6.25-10.66-11.2-14.59C7.1,71.21.91,64.89.08,56.89A17.5,17.5,0,0,1,6,42.06c6.38-5.44,16.12-5.77,22.09-11.66,3.93-3.86,5.52-9.44,8.12-14.3,2.94-5.48,7.61-10.36,13.6-12,4.35-1.19,9-.59,13.34.64,5.16,1.48,19.24,6.41,19.28,13.07,0,3.5-4,7.52-5.38,10.63C75.22,32.57,74.16,37.16,75.38,41.64Z"/><path class="cls-4" d="M71.64,10.74c4-2.46,9.07-2.94,13.74-2.15A12.17,12.17,0,0,1,89.56,10a4.14,4.14,0,0,1,1.61,1.58,3.61,3.61,0,0,1,0,3.11,7.63,7.63,0,0,1-2,2.47,20.67,20.67,0,0,1-12.63,4.64c-1.73.07-3.68-.12-4.82-1.42a5.1,5.1,0,0,1-1.06-2.45,11.3,11.3,0,0,1,1.9-8.61"/><polygon class="cls-2" points="65.43 57.76 63.7 35.42 52.52 34.17 46.15 52.38 65.43 57.76"/><path class="cls-2" d="M81.05,28.87a18,18,0,0,1-1.75,4.44,17.52,17.52,0,0,1-2.4,3.36,18.27,18.27,0,1,1,4.15-7.8Z"/><path class="cls-4" d="M81,18.47a23.36,23.36,0,0,1-15.37,5.69,15.11,15.11,0,0,0-4.46.21C55.64,26,54.9,33.68,52,37.77c-.83,1.16-2,2.37-3.41,2.21a3,3,0,0,1-1.87-1.11,8.76,8.76,0,0,1-1.1-1.93c-1.9-4.13-4.21-8.66-5-13.19a22.33,22.33,0,0,1-.05-5.89,18.88,18.88,0,0,1,2.34-8.14c3.28-5.33,10.56-8.07,16.52-8.5,1.49-.11,3-.42,4.43-.66a44.81,44.81,0,0,1,18.37.89c1.84.48,3.81,1.2,4.77,2.84a5.48,5.48,0,0,1,.67,2.61A11.78,11.78,0,0,1,85,14.32,27.44,27.44,0,0,1,81,18.47Z"/><path class="cls-2" d="M62.18,24.15c-.43-2.51-2.62-7.13-6.89-7.73-4.11-.58-10.95,4.66-6.88,15.1C53.19,43.81,62.34,35,62.34,35S62.74,27.43,62.18,24.15Z"/><path class="cls-1" d="M60.39,27.74l-9.67-7a5.48,5.48,0,0,1,5.35-1.3C59.11,20.41,60.69,24.17,60.39,27.74Z"/><path class="cls-1" d="M58,24a7.24,7.24,0,0,0-3.73,7.4c.71,6.07,6.11,1.16,6.06-4.2C60.33,23.56,58,24,58,24Z"/><path class="cls-3" d="M69.34,62.41C69,62.28,42,58.54,42,58.54l4.11-13.17,20.72,6Z"/><path class="cls-3" d="M45.05,57.76l-3,.78s-7.84,27.52-6.28,47.3c1.43,18,2.49,25.57,10.15,47.79l66.75,9.2,23.08-11.54L106,123.9s2-19.4-.67-24.09-36-37.4-36-37.4Z"/><path class="cls-3" d="M45.92,153.63s5.13,14.64,12.34,31c2.83,6.45,6,13.15,9.29,19.34l1,1.77c4.4,8.1,20.79-19.46,33.35-43.1,6.35-12,11.73-22.93,14.07-27.77l1.26-2.63L49.93,145.61Z"/><path class="cls-3" d="M81.54,165.26a15.73,15.73,0,0,0,10.57-4.09L165,94.23,149.84,73.69,88,122.48,70.46,77.14,41.12,88.46l25.75,66.73a15.72,15.72,0,0,0,11,9.64A15.52,15.52,0,0,0,81.54,165.26Z"/><path class="cls-2" d="M290.86,184.44v34.85H397.55a8.09,8.09,0,0,0,0-10.75l-65.44-26.39-.12,0-7.39-10.66L314.6,157l-23.43,27.06Z"/><path class="cls-5" d="M290.86,184.44v14.8c5.23-1.18,20.79-5.07,21.4-5.42s19.73-6.76,20.4-7.15c.24-.14-.06-2-.55-4.52l-.12,0-7.39-10.66c-5.46,2.05-24.88,9.4-33.43,12.62Z"/><path class="cls-4" d="M290.86,196.49v22.8l116.07,2.3.41-3.62.41-3.67a9.33,9.33,0,0,0-6.23-9.87l-14.13-4.83-54-18.5-18,6.53Z"/><path class="cls-6" d="M322.86,186.67c18.39,10.56,53,20.77,57.12,19.6,3.56-1,6.23-3.25,6.82-5"/><path class="cls-4" d="M321,185.61s6.86-24.91,17.07-27.42,14.54,2.12,8.63,11.65c-3.22,5.21-13.22,11.26-13.22,11.26Z"/><polygon class="cls-3" points="290.86 211.88 290.86 221.59 406.93 221.59 407.34 217.97 290.86 211.88"/><path class="cls-7" d="M58.26,184.62c.16.33.29.66.45,1,2.71,6.13,5.72,12.46,8.85,18.31a29.43,29.43,0,0,0,27,17.63h49.92l24.35-31.15,2.06-2.61,10.59-13.56,1.22-1.55,7.88-10.08,27.3-34.91,1.41-1.81,4.8-6.11.71-.92,7.46,10.06,6.23,8.41,1.22,1.65L249,151.58l1.16,1.59,7,9.46,17,22.93,3.25,4.38,5.18,7,5.11-3.79,2.71-2,9.18-6.82,1.79-1.32,11.24-8.33,3.38-2.51,3.85-2.85,3.15-2.34,5.88-4.34,1.08-.81-27.4-36.95-1.18-1.59-7.88-10.65-1.2-1.59-4.71-6.39L286.39,103l-13-17.53L272,83.62l-8.7-11.73-1.6-2.18-8.55-11.52a29.19,29.19,0,0,0-9.06-8A24.77,24.77,0,0,0,241.89,49a28.79,28.79,0,0,0-9.17-2.57,28.41,28.41,0,0,0-5.68-.08,26.82,26.82,0,0,0-2.95.41,29.55,29.55,0,0,0-13.9,6.68L183.35,76.65l-2.5,2.16-26.74,23.07-1.48,1.3-15.25,13.16-3.83,3.31-1.36,1.15-3,2.62-4.48,3.87L123,128.7l-7.11,6.16-24,20.69-1.59,1.38L77.28,168.21l-3.89,3.36L59.26,183.75Z"/><path class="cls-8" d="M241.64,51.61a8,8,0,0,1,2.49-1.44A24.77,24.77,0,0,0,241.89,49a11.22,11.22,0,0,0-1.53,1.06c-2.42,2.07-3.63,5-4.79,7.85s-2.13,5.2-4.09,7A8.39,8.39,0,0,1,220.1,52.57a32.22,32.22,0,0,1,2.61-2.12A18.2,18.2,0,0,0,227,46.38a26.82,26.82,0,0,0-2.95.41c-.71.65-1.57,1.34-2.56,2.09a31.57,31.57,0,0,0-2.79,2.26,10.36,10.36,0,0,0,14,15.23c2.3-2.07,3.46-4.92,4.6-7.69S239.57,53.36,241.64,51.61Z"/><path class="cls-8" d="M260.17,90.64c4.76-3.13,9.14-4.86,13.23-5.21L272,83.62a32,32,0,0,0-13,5.37c-.81.53-1.59,1.08-2.38,1.63-3.2,2.22-6.5,4.5-10.24,5.17a9.74,9.74,0,0,1-7.6-2,5.44,5.44,0,0,1-2.12-4.16c0-4.09,4.71-6.86,9.11-7.73,1-.19,2.07-.37,3.13-.53,3.83-.59,7.82-1.18,10.85-3.81a11.5,11.5,0,0,0,3.5-5.68l-1.6-2.18a10.16,10.16,0,0,1-3.2,6.37c-2.59,2.26-6.11,2.79-9.85,3.36-1.08.17-2.16.33-3.2.55-5.35,1-10.71,4.44-10.71,9.65a7.45,7.45,0,0,0,2.83,5.66,11.72,11.72,0,0,0,9.22,2.41c4.14-.72,7.62-3.14,11-5.48C258.6,91.7,259.38,91.15,260.17,90.64Z"/><path class="cls-8" d="M249.72,151.19c-.22.14-.46.27-.69.39l1.16,1.59.59-.33c3.67-2.3,6.62-6.33,8.53-11.66l.43-1.21c1-3,2.14-6.16,4.7-7.41,2.81-1.4,6.34-.24,11.14,3.61,1.08.89,2.06,1.75,2.26,2.83.35,1.87-1.4,3-4.33,4.6a31.2,31.2,0,0,0-2.81,1.69,9.81,9.81,0,0,0,1.4,16,6.52,6.52,0,0,0,5.4.18c4.78-1.91,8.55-9,10-12.86a10.73,10.73,0,0,0,.86-4.54c-.19-2.71-1.88-4.79-3.5-6.8a26.4,26.4,0,0,1-2.16-3,11,11,0,0,1-1.1-8.81c1.65-5.72,7.14-10.32,11.32-12.52l.63-.31-1.2-1.59-.35.17c-4.52,2.38-10.46,7.39-12.28,13.7A12.8,12.8,0,0,0,281,135.25a25.75,25.75,0,0,0,2.34,3.2c1.49,1.87,2.91,3.62,3.07,5.74a8.66,8.66,0,0,1-.75,3.7c-1.26,3.32-4.72,10.06-8.88,11.71a4.48,4.48,0,0,1-3.82-.12,7.83,7.83,0,0,1-1.1-12.6,25.52,25.52,0,0,1,2.6-1.55c2.79-1.55,6-3.28,5.3-6.7-.31-1.73-1.63-2.91-3-4-3.42-2.75-8.53-6.17-13.23-3.85-3.3,1.63-4.56,5.28-5.68,8.53l-.43,1.2C256.24,143.94,253.9,148.55,249.72,151.19Z"/><path class="cls-8" d="M238.47,137.35l1.22,1.65a26.46,26.46,0,0,1,4.27-.86c3.48-.53,7.07-1.08,9-4.23,2.4-4,.35-9-5.94-14.4-3.12-2.7-7.58-8.24-4.56-11.89,2-2.46,5.88-2.26,12.13.63,9.3,4.24,17,5.4,23.48,3.48a18.09,18.09,0,0,0,9.6-7.08L286.39,103a16.18,16.18,0,0,1-8.9,6.88c-6,1.79-13.25.67-22.09-3.38-4.52-2.09-11-4.35-14.47-.1-3.73,4.5.24,10.71,4.8,14.64,3.1,2.69,8,7.84,5.52,11.89-1.42,2.36-4.42,2.83-7.59,3.3A27.31,27.31,0,0,0,238.47,137.35Z"/><path class="cls-8" d="M379.87,173.85l.59.45a25.94,25.94,0,0,1,4.7,4l.75-2.1a32.77,32.77,0,0,0-4.29-3.5l-.59-.44c-4-2.92-6.66-6-8.19-9.29-.06-.12-.1-.24-.16-.35h-2.1c.14.39.29.76.47,1.15C372.72,167.44,375.61,170.72,379.87,173.85Z"/><path class="cls-8" d="M255,205.86c-2.69,4.89-3.2,10.54-2.94,15.72h2c-.26-4.91.2-10.24,2.69-14.78,3.13-5.71,10.83-9.9,16.88-6.72a6.92,6.92,0,0,1,3.4,3.66c.67,2,.08,4.15-.55,6.42a20,20,0,0,0-.92,5.29,10.35,10.35,0,0,0,2.12,6.13h2.56a9.18,9.18,0,0,1-2.71-6.15,17.54,17.54,0,0,1,.86-4.75c.67-2.46,1.38-5,.49-7.57a8.63,8.63,0,0,0-4.34-4.76C267.44,194.64,258.56,199.34,255,205.86Z"/><path class="cls-8" d="M321,162.63a7.15,7.15,0,0,1,.35,2.29,7.4,7.4,0,0,1-1.42,4.39l3.15-2.34a8.54,8.54,0,0,0,.24-2,9.51,9.51,0,0,0-.26-2.31c-1.12-4.7-5.82-7.08-10-9.2-.83-.42-1.63-.81-2.38-1.22a41.76,41.76,0,0,1-11.73-9.53c-2.83-3.32-4-6.29-3.54-8.88s2.69-4.66,5-6.75c.67-.61,1.34-1.21,2-1.84a2.92,2.92,0,0,0,.29-.34l-1.18-1.59a6.39,6.39,0,0,1-.49.53c-.61.61-1.26,1.2-1.91,1.77-2.45,2.22-5,4.5-5.62,7.86s.69,6.66,4,10.52a43.57,43.57,0,0,0,12.29,10c.76.43,1.59.84,2.43,1.28C315.91,157.12,319.82,159.09,321,162.63Z"/><path class="cls-8" d="M282.77,171.67c1.93,3.06,5.35,4.28,8.65,5.48.67.23,1.33.49,2,.75,3.09,1.21,6.14,3.65,6.25,6.42l1.79-1.32c-.78-3.1-3.91-5.62-7.31-6.93-.67-.28-1.36-.51-2-.77-3-1.08-6.1-2.2-7.65-4.68a6,6,0,0,1,.67-6.62,6.46,6.46,0,0,1,1.28-1.37,5.39,5.39,0,0,1,4.79-1.36,8.22,8.22,0,0,1,2.79,1.36,21.08,21.08,0,0,1,2.85,2.49l.55.53c3.76,3.7,7.67,7.51,12.88,8.75a11.82,11.82,0,0,0,2.43.27l3.38-2.51a9.21,9.21,0,0,1-5.36.31c-4.68-1.1-8.37-4.72-11.95-8.23l-.55-.53c-.37-.38-.75-.73-1.14-1.08a12.51,12.51,0,0,0-5.41-3.27,7.83,7.83,0,0,0-8,3.27,2.18,2.18,0,0,0-.17.21A8,8,0,0,0,282.77,171.67Z"/><path class="cls-8" d="M259.8,170.94c.43.84.88,1.71,1.33,2.53a41.88,41.88,0,0,0,16.34,16.47,30.3,30.3,0,0,0,4.32,1.95,21,21,0,0,0,6,1.26l2.71-2a18.82,18.82,0,0,1-8-1.1,32.36,32.36,0,0,1-8.24-4.48,41.49,41.49,0,0,1-11.38-13.05c-.45-.81-.88-1.65-1.31-2.48a29.45,29.45,0,0,0-4.84-7.4h-3C256.48,164.59,258.09,167.68,259.8,170.94Z"/><path class="cls-8" d="M226.41,162.63a3.24,3.24,0,0,1,.63.29c3.93,2.18,6.21,6.49,8.43,10.65l.49,1a127.17,127.17,0,0,0,9.63,15.23c1.49,2,3.3,4.22,6,4.83a6.3,6.3,0,0,0,5.9-1.93,9.34,9.34,0,0,0,2.49-8.39c-1.17-5-5.64-8.37-9.39-10.75-3.54-2.26-7.49-5.3-6.68-8.86a3.59,3.59,0,0,1,1.22-2H242.6a5.8,5.8,0,0,0-.63,1.59c-1.2,5.36,4.94,9.27,7.57,10.94,3.44,2.18,7.51,5.25,8.53,9.55a7.46,7.46,0,0,1-2,6.57,4.34,4.34,0,0,1-4.06,1.37c-2-.45-3.56-2.33-4.84-4.08a119.9,119.9,0,0,1-9.47-15l-.51-.94c-1.95-3.66-3.95-7.43-7.12-10Z"/><path class="cls-8" d="M197.52,191.22c.57,6.6,6.72,10.91,12.18,12.09a41.8,41.8,0,0,0,8.24.68,43.92,43.92,0,0,1,7.07.5c4.62.82,9.51,4.12,9.53,8.64,0,4.31-4.24,7.25-6.34,8.45h3.53c3.05-2.39,4.8-5.4,4.78-8.45,0-5.64-5.62-9.59-11.14-10.57A45.3,45.3,0,0,0,218,202a39.27,39.27,0,0,1-7.82-.63c-5-1.08-10.2-5-10.66-10.36a8.17,8.17,0,0,1,3.74-7.11,5.7,5.7,0,0,1,5.89-.63c1.63.84,2.79,2.42,4,4.09s2.66,3.61,4.74,4.68a8,8,0,0,0,11-7.71c-.47-4-3.75-6.68-6.93-9.28s-6.23-5.05-5.78-8.5a4.93,4.93,0,0,1,2.91-3.78,2.09,2.09,0,0,1,.41-.17H216a6.34,6.34,0,0,0-1.79,3.71c-.59,4.52,3,7.45,6.49,10.28,2.87,2.34,5.85,4.75,6.23,8a6.06,6.06,0,0,1-8.22,5.72,12.61,12.61,0,0,1-4-4.09,14.18,14.18,0,0,0-4.69-4.68,7.59,7.59,0,0,0-7.88.75A10.12,10.12,0,0,0,197.52,191.22Z"/><path class="cls-8" d="M164.23,221.58h2c.38-6.05,3.52-12.54,9.63-14.78,5.84-2.12,13-.09,21.15,6.06,1,.7,1.92,1.45,2.93,2.24a89.45,89.45,0,0,0,9.12,6.48h4.14c-4.2-2-8.25-5.09-12.06-8-1-.79-2-1.56-2.95-2.28-8.77-6.55-16.49-8.67-23-6.31C168.2,207.51,164.62,214.82,164.23,221.58Z"/><path class="cls-8" d="M218.61,116.87a49.54,49.54,0,0,1,5.46,2.93l.71-.92,7.46,10.06c-.09-3.83-2.59-7.27-5.09-9.31a36.48,36.48,0,0,0-7.7-4.52c-1.12-.56-2.24-1.09-3.34-1.7-4.36-2.33-7-5.1-8-8.17a5.59,5.59,0,0,1,.71-5.15c1.73-2,5.11-1.89,8.39-1.73,4,.18,8.2.37,9.75-3.48,1.1-2.67-.1-5.78-3.44-9a57.23,57.23,0,0,0-17.73-11.48,9,9,0,0,0-4.15-.88c-3.67.35-5.12,3.68-6.54,6.88-1,2.4-2.14,4.87-4.11,6a4.48,4.48,0,0,1-4.65-.35,7.65,7.65,0,0,1-3.6-6.54,9.58,9.58,0,0,1,.59-2.83l-2.5,2.16a4.41,4.41,0,0,0-.06.55,9.74,9.74,0,0,0,4.52,8.33,6.45,6.45,0,0,0,6.67.41c2.53-1.41,3.75-4.2,5-6.9,1.28-2.92,2.4-5.46,4.91-5.69a7.22,7.22,0,0,1,3.24.74,54.71,54.71,0,0,1,17.08,11.07c1.56,1.49,4,4.34,3,6.84s-3.62,2.43-7.86,2.24c-3.56-.16-7.61-.36-10,2.41a7.5,7.5,0,0,0-1.08,7c1.1,3.6,4.11,6.74,8.95,9.33C216.31,115.75,217.45,116.32,218.61,116.87Z"/><path class="cls-8" d="M152.63,103.18a30.72,30.72,0,0,1,2.62,4.44,31.33,31.33,0,0,0,3,5,16.72,16.72,0,0,0,25.55-.43c.61-.83,1.12-1.71,1.63-2.56a15.49,15.49,0,0,1,2.95-4,8.27,8.27,0,0,1,10.06-.16,10.23,10.23,0,0,1,3.66,9.91,5.13,5.13,0,0,1-1.2,2.75c-1.67,1.77-4.54,1.16-7.59.49-3.28-.72-7-1.53-9.41,1.08a5,5,0,0,0-.83,5.47,8.05,8.05,0,0,0,6.59,4.93c4.36.24,8.13-2.42,11.49-4.78l.51-.37c3.11-2.18,7.14-4.52,10.87-3.3,2.75.9,4.5,3.56,5.33,6l1.41-1.81a10.42,10.42,0,0,0-6.13-6.11c-4.62-1.49-9.39,1.32-12.6,3.56l-.53.37c-3.22,2.28-6.56,4.64-10.23,4.42a6.09,6.09,0,0,1-4.9-3.71,3.14,3.14,0,0,1,.45-3.38c1.65-1.79,4.54-1.16,7.57-.51,3.28.73,7,1.53,9.43-1a7.19,7.19,0,0,0,1.71-3.76,12.23,12.23,0,0,0-4.44-11.83,10.29,10.29,0,0,0-12.52.24,17.74,17.74,0,0,0-3.34,4.48c-.51.84-1,1.65-1.53,2.4a13.91,13.91,0,0,1-11.12,5.34,14.07,14.07,0,0,1-11.29-5,30.58,30.58,0,0,1-2.81-4.7,32.75,32.75,0,0,0-2.88-4.83Z"/><path class="cls-8" d="M131.17,122.85a4.14,4.14,0,0,1,1-2l-3,2.62c0,3.12,2.67,5.76,5.5,7.11,1.08.49,2.18.89,3.26,1.28a18.42,18.42,0,0,1,4.91,2.26,6.14,6.14,0,0,1,2.42,4.05,3,3,0,0,1-.71,2.38,2.81,2.81,0,0,1-2.2.94,7,7,0,0,1-3.46-1.16,13.58,13.58,0,0,1-3-2.46c-.63-.7-1.26-1.43-1.89-2.16-2.79-3.24-5.66-6.56-9.33-8.37L123,128.7c3.74,1.52,6.65,4.94,9.5,8.26.65.73,1.27,1.47,1.9,2.18,1.77,2,4.9,4.27,7.92,4.27a4.8,4.8,0,0,0,3.66-1.6,4.93,4.93,0,0,0,1.2-3.91,8.2,8.2,0,0,0-3.21-5.42,20.6,20.6,0,0,0-5.42-2.54,26.81,26.81,0,0,1-3.07-1.2C133.06,127.6,130.78,125.32,131.17,122.85Z"/><path class="cls-8" d="M90.35,156.93l.51.27a60.81,60.81,0,0,0,6.35,3.05c6,2.32,11.67,1.82,15.25-1.26,2.46-2.12,3.68-5.17,4.88-8.14,1.31-3.3,2.57-6.4,5.36-7.94,3.77-2.06,8.51,0,10.38,1,4.32,2.28,7.41,5.54,8.68,9.17a10.74,10.74,0,0,1-1.1,9.54,7.08,7.08,0,0,1-1.65,1.76,19.36,19.36,0,0,1-5.64,2.56c-3.08,1-6.29,2.08-8,5-1.9,3.28-.78,7.41,1.16,10,2.07,2.79,5.07,4.6,7.71,6.21,1.94,1.16,4.36,2.62,7.05,2.91,4.13.45,8-1.91,10.85-4l1.06-.78c2.56-1.89,5.19-3.84,8.2-4.43a7.7,7.7,0,0,1,5.6,1.2A4.35,4.35,0,0,1,168.9,186a9.31,9.31,0,0,1,0,2.1,11.7,11.7,0,0,0-.05,2.3c0,.06,0,.12,0,.18a7.26,7.26,0,0,0,6.95,5.88,10.6,10.6,0,0,0,8.18-3.93A14.12,14.12,0,0,0,187,181.39a14.29,14.29,0,0,0-4.34-8.68,11.54,11.54,0,0,0-1.55-1.26,27.44,27.44,0,0,0-7.19-3,43,43,0,0,1-4.51-1.59,11.59,11.59,0,0,1-5-4.18,5.53,5.53,0,0,1-.86-4.19c.75-3.32,4.89-5.07,8.61-5.09a42.08,42.08,0,0,1,4.83.39,28.75,28.75,0,0,0,7.37.26,10.89,10.89,0,0,0,7-4.09,6.45,6.45,0,0,0,1.2-5,10,10,0,0,0-3.17-5.07c-1.77-1.75-8-7.18-14.15-4.5a16,16,0,0,0-3.69,2.53c-.42.34-.81.69-1.22,1a14.55,14.55,0,0,1-12.68,2.19,8.42,8.42,0,0,1-5.82-5.41,17.68,17.68,0,0,1-.53-5.05,24.08,24.08,0,0,0-.35-4.54,12.16,12.16,0,0,0-6.5-8.23,12.81,12.81,0,0,0-7.12-1.52l-3.83,3.31a6.36,6.36,0,0,1,1.24-.67,10.93,10.93,0,0,1,14.28,7.5,21.83,21.83,0,0,1,.32,4.17,18.92,18.92,0,0,0,.63,5.62,10.3,10.3,0,0,0,7.09,6.68,16.54,16.54,0,0,0,14.47-2.49c.43-.34.84-.69,1.27-1a14.22,14.22,0,0,1,3.23-2.24c5-2.19,10.43,2.57,12,4.08a8.32,8.32,0,0,1,2.61,4,4.48,4.48,0,0,1-.89,3.46,8.65,8.65,0,0,1-5.69,3.3,27,27,0,0,1-6.86-.25c-1.65-.2-3.36-.38-5.09-.42-4.35,0-9.5,2.11-10.52,6.63a7.14,7.14,0,0,0,.53,4.62,13.12,13.12,0,0,0,6.49,6,38.19,38.19,0,0,0,4.7,1.67,25.56,25.56,0,0,1,6.68,2.81,8.79,8.79,0,0,1,1.43,1.18,12.43,12.43,0,0,1,3.62,7.41,12.1,12.1,0,0,1-2.62,9.61,8.54,8.54,0,0,1-6.6,3.24c-2.51-.1-4.79-2-5.07-4.16a8,8,0,0,1,0-2.07c0-.16,0-.31,0-.47a10.15,10.15,0,0,0,0-2.06,6.33,6.33,0,0,0-2.69-4.25A9.68,9.68,0,0,0,161,180c-3.44.67-6.27,2.75-9,4.77l-1,.77c-2.77,2-6.05,4-9.51,3.66-2.24-.26-4.36-1.54-6.23-2.66-2.5-1.51-5.33-3.2-7.16-5.68-1.55-2.12-2.47-5.38-1-7.9,1.34-2.3,4-3.2,6.9-4.14a20.85,20.85,0,0,0,6.23-2.85,10,10,0,0,0,2.73-3.34,12.85,12.85,0,0,0,.67-10.18c-1.45-4.11-4.85-7.75-9.61-10.26-2.67-1.42-7.82-3.42-12.24-1-3.4,1.87-4.86,5.47-6.25,8.95-1.14,2.87-2.24,5.58-4.33,7.37-4.48,3.87-11.28,1.69-13.26.92a56.61,56.61,0,0,1-6-2.87Z"/><path class="cls-8" d="M58.26,184.62c.16.33.29.66.45,1a29.12,29.12,0,0,0,3.81.39,30.24,30.24,0,0,1,3.13.26,8.38,8.38,0,0,1,2.57.8c3.86,2,4.37,6.61,4.92,11.52.43,3.85.88,7.84,2.92,11a11.49,11.49,0,0,0,20-11.3c-1.86-3.77-5.44-6-8.9-8.19-1.2-.75-2.46-1.53-3.58-2.36-2.83-2.06-5-5.31-5.34-8.08a5.31,5.31,0,0,1,1-4.16,9.42,9.42,0,0,1,4.32-2.64,29.29,29.29,0,0,1,11.15-1.57,6.76,6.76,0,0,1,3.26.81c2,1.31,2.06,4.52,1.26,6.93-.34,1-.73,1.87-1.16,2.83a19.05,19.05,0,0,0-1.85,5.7c-.67,6.73,5.72,12.19,12,13.39,5.07,1,10.18,0,15.13-.87,1.12-.21,2.22-.41,3.34-.59,7.68-1.25,13.07-.57,16.94,2.18a8.29,8.29,0,0,1,3.48,4.68,7,7,0,0,1-4.17,7.69,8.65,8.65,0,0,1-9-2c-.27-.27-.55-.55-.8-.84a11.34,11.34,0,0,0-1.89-1.75,6.41,6.41,0,1,0-6.51,11,11.11,11.11,0,0,0,4.09.94l.73.08h5a6.83,6.83,0,0,0-3.14-1.67,18,18,0,0,0-2.38-.35,10.45,10.45,0,0,1-3.42-.75,4.44,4.44,0,0,1-2.18-2.75,4.35,4.35,0,0,1,.33-3.5,4.39,4.39,0,0,1,2.91-2,4.25,4.25,0,0,1,3.46.59,9.57,9.57,0,0,1,1.57,1.45c.28.32.57.63.89.93a10.64,10.64,0,0,0,11.12,2.33,9,9,0,0,0,5.31-9.94,10.45,10.45,0,0,0-4.25-5.84c-5.68-4-13.23-3.36-18.39-2.51-1.12.17-2.26.39-3.38.59-4.78.88-9.71,1.79-14.41.88-5.44-1-11-5.64-10.42-11.26a17.45,17.45,0,0,1,1.67-5.09,27.44,27.44,0,0,0,1.22-3c1.08-3.22.87-7.31-2-9.19a8.38,8.38,0,0,0-4.25-1.14,30.46,30.46,0,0,0-11.89,1.69,11,11,0,0,0-5.2,3.26A7.31,7.31,0,0,0,76.26,180c.45,3.3,2.85,7,6.13,9.39,1.18.87,2.46,1.65,3.7,2.44,3.38,2.12,6.56,4.13,8.17,7.39a9.52,9.52,0,0,1-16.54,9.35c-1.79-2.77-2.22-6.52-2.62-10.16-.59-5.2-1.2-10.59-6-13a10.09,10.09,0,0,0-3-1,29.58,29.58,0,0,0-3.48-.31,25.2,25.2,0,0,1-3.36-.32Z"/><path class="cls-9" d="M191.37,162.83c-4.78,4.76-34.48,42.86-46.14,57.77"/><path class="cls-10" d="M114.46,101.88l-10.71,8.42s8.3-10.82-8.38-21.69"/></g></g></svg>